<?xml version="1.0" encoding="UTF-8" standalone="no"?>
<svg width="46px" height="72px" viewBox="0 0 46 72" version="1.1" xmlns="http://www.w3.org/2000/svg" xmlns:xlink="http://www.w3.org/1999/xlink">
    <!-- Generator: Sketch 47 (45396) - http://www.bohemiancoding.com/sketch -->
    <title>Group 7</title>
    <desc>Created with Sketch.</desc>
    <defs></defs>
    <g id="Page-1" stroke="none" stroke-width="1" fill="none" fill-rule="evenodd">
        <g id="Desktop-Copy-5" transform="translate(-565.000000, -1967.000000)">
            <g id="Group-7" transform="translate(556.000000, 1967.000000)">
                <path d="M50.8901157,11.1047659 C54.5650398,20.9072433 54.8498567,29.2718028 51.7445663,36.1984443 C47.0866307,46.5884066 36.738341,54.5538391 33.4143946,56.8356892 C30.0904483,59.1175392 21.1628238,64.1842112 15.4314397,65.6792695 C9.70005554,67.1743278 6.36431305,68.194129 6.13659631,64.1842112 C5.90887957,60.1742934 5.95349975,48.8035359 6.36431305,45.0830836 C6.77512636,41.3626313 10.7432444,19.9740081 16.3023023,17.069602 C21.8613603,14.1651959 30.2991886,5.04241485 42.7687315,6.32037405 C46.2159791,6.98148547 46.2916985,7.78601358 48.4048992,7.23803778 C50.5180998,6.69006197 54.6513584,6.1361869 55.163971,5.19178075 C55.6765836,4.2473746 56.441245,7.06879453 55.6765836,7.62699572 C54.9119223,8.18519691 52.9929102,7.33281924 51.7445663,9.13694437 C50.912337,10.3396945 50.6275202,10.995635 50.8901157,11.1047659 Z" id="Path-26" stroke="#B3B5BE" fill="#B3B5BE" transform="translate(31.000000, 36.000000) scale(1, -1) rotate(-191.000000) translate(-31.000000, -36.000000) "></path>
                <path d="M25,9 C34.4247656,9.23733715 40.5705544,12.5336864 43.4373663,18.8890479 C47.7375842,28.42209 47.5255674,33.3686742 49.2803703,35.5994786 C51.0351732,37.830283 52.0552004,56.6985863 49.2803703,64" id="Path-72" stroke="#FFFFFF"></path>
                <path d="M18.8634222,9 C12.3229375,25.5035555 14.0868662,39.4309478 24.1552083,50.782177 C34.2235503,62.1334062 41.1718143,67.5258947 45,66.9596423" id="Path-68" stroke="#FFFFFF"></path>
                <path d="M21.5021657,10 C20.5506813,20.6105334 20.9513242,27.6814889 22.7040943,31.2128667 C25.3332496,36.5099333 34.4231536,43.7428817 37.5054533,50.5736929 C40.587753,57.4045041 44.0110578,64.0801836 46,66" id="Path-69" stroke="#FFFFFF"></path>
                <path d="M24,10 C25.9565499,14.2657654 27.9750324,17.4161624 30.0554475,19.4511911 C33.17607,22.5037341 36.8205253,22.0340349 39,27" id="Path-70" stroke="#FFFFFF"></path>
                <path d="M42,42 C42.702549,43.2058803 46.0162208,48.3386923 46.1568359,51.1601495 C46.297451,53.9816068 45.5538235,58.6714217 47,64" id="Path-71" stroke="#FFFFFF"></path>
            </g>
        </g>
    </g>
</svg>