<?xml version="1.0" encoding="UTF-8" standalone="no"?>
<svg width="67px" height="106px" viewBox="0 0 67 106" version="1.1" xmlns="http://www.w3.org/2000/svg" xmlns:xlink="http://www.w3.org/1999/xlink">
    <!-- Generator: Sketch 47 (45396) - http://www.bohemiancoding.com/sketch -->
    <title>Group 6</title>
    <desc>Created with Sketch.</desc>
    <defs></defs>
    <g id="Page-1" stroke="none" stroke-width="1" fill="none" fill-rule="evenodd" opacity="0.197294776">
        <g id="Desktop-Copy-5" transform="translate(-66.000000, -1939.000000)">
            <g id="Plaisir" transform="translate(-25.000000, 1520.000000)">
                <g id="Group-6" transform="translate(121.000000, 472.500000) scale(1, -1) rotate(118.000000) translate(-121.000000, -472.500000) translate(85.000000, 428.000000)">
                    <path d="M64.6417665,8.76329299 C69.9336574,22.8345912 70.3437937,34.8417815 65.8721755,44.7848637 C59.1647482,59.699487 44.263211,71.1337368 39.4767282,74.4092957 C34.6902455,77.6848547 21.8344663,84.9579806 13.5812731,87.1041127 C5.32807998,89.2502447 0.524610792,90.7141529 0.196698689,84.9579806 C-0.131213414,79.2018083 -0.0669603667,62.8792693 0.524610792,57.53862 C1.11618195,52.1979707 6.83027191,21.4949471 14.8353154,17.325719 C22.8403588,13.1564909 34.9908316,0.0608858343 52.9469734,1.89537566 C57.9110099,2.84439043 58.0200459,3.99927756 61.0630548,3.21266713 C64.1060637,2.4260567 70.0579561,1.63097797 70.7961182,0.275298175 C71.5342804,-1.08038162 72.6353927,2.96972118 71.5342804,3.77100999 C70.4331681,4.5722988 67.6697907,3.34872439 65.8721755,5.93851691 C64.6737653,7.66504527 64.263629,8.60663729 64.6417665,8.76329299 Z" id="Path-26" stroke="#292F48" fill="#292F48"></path>
                    <path d="M63.9376064,8.95885539 C66.1324183,22.6463061 64.9265136,33.444389 60.3198925,41.3531043 C53.4099607,53.2161771 41.7986348,64.5087197 37.9763418,65.7988437 C34.1540489,67.0889677 28.6179987,76.4674305 24.9702188,78.9164236 C21.3224389,81.3654167 8.57841229,88.2289292 6.91432921,87.9941214 C5.25024614,87.7593135 4.90187368,86.6083593 5.25024614,82.1634995 C5.5986186,77.7186398 4.28290798,59.2420324 5.5986186,52.9424545 C6.91432921,46.6428765 12.6902531,26.7297201 16.4471853,22.8210928 C20.2041176,18.9124656 35.1475313,4.72505884 51.7733291,5.00405805 C62.8571943,5.19005753 66.9119534,6.50832331 63.9376064,8.95885539 Z M57.836908,13.3512293 C60.1922852,11.324482 56.9813326,10.2341916 48.2040502,10.0803581 C35.0381265,9.84960788 23.2044782,21.5835035 20.2293739,24.816189 C17.2542696,28.0488745 12.6803313,44.5183325 11.6384237,49.7284877 C10.5965161,54.9386428 11.6384237,70.2199825 11.3625485,73.8961667 C11.0866733,77.5723509 11.3625485,78.5242639 12.6803313,78.7184651 C13.9981141,78.9126662 24.0900738,73.236101 26.9787407,71.2106266 C29.8674076,69.1851522 34.2513905,61.4285617 37.2782538,60.3615464 C40.3051171,59.294531 49.5000942,49.9548738 54.9720502,40.1433515 C58.6200209,33.6023365 59.5749735,24.6716291 57.836908,13.3512293 Z" id="Combined-Shape" fill="#FFFFFF"></path>
                    <g id="Group-5" transform="translate(11.000000, 11.000000)" fill="#FFFFFF">
                        <path d="M44.4575576,1.74482829 C44.836961,1.04495121 45.4693712,0.695012666 46.3547884,0.695012666 C47.6829142,0.695012666 47.8565576,4.16817546 47.6829142,4.5377459 C47.5092708,4.90731634 45.895522,6.54861293 45.2337072,5.54317941 C44.7924974,4.87289041 44.5337809,3.60677336 44.4575576,1.74482829 Z" id="Path-28"></path>
                        <path d="M32.1622775,8.44610576 C33.180443,6.86349451 34.1315207,6.0409882 35.0155104,5.97858682 C36.3414951,5.88498474 37.0315724,6.49034827 37.9790102,8.70503644 C38.926448,10.9197246 39.8905864,10.9007939 39.8357741,11.8107322 C39.7809619,12.7206706 38.5076484,15.2691711 37.2174201,15.3230186 C35.9271918,15.3768661 33.6824601,15.6059282 32.7495818,13.2631419 C32.127663,11.7012844 31.9318949,10.0956057 32.1622775,8.44610576 Z" id="Path-30"></path>
                        <path d="M16.9822901,26.6358283 C18.1200719,26.6358283 21.1809918,27.5150568 21.5595387,28.387344 C21.9380856,29.2596312 22.725583,31.9787189 21.1809918,32.9117948 C19.6364006,33.8448708 18.6371481,33.6437841 16.9822901,33.4401733 C15.3274321,33.2365625 14.3014159,31.8178074 14.3014159,30.6666071 C14.3014159,29.5154068 15.0347435,27.9083959 15.4156456,27.6278 C15.7965477,27.3472041 15.8445084,26.6358283 16.9822901,26.6358283 Z" id="Path-33"></path>
                        <path d="M8.7673087,40.9424321 C9.19752753,39.9695314 9.93863442,39.5454825 10.9906294,39.6702852 C12.5686218,39.8574894 14.1952172,41.1708632 14.1952172,41.6458149 C14.1952172,42.1207665 14.4311667,43.4490746 13.4145713,44.6183643 C12.3979759,45.7876541 10.2438129,45.3156472 9.08933049,44.2725625 C8.31967557,43.5771727 8.21233497,42.4671292 8.7673087,40.9424321 Z" id="Path-35"></path>
                        <path d="M7.5141215,55.5170112 C8.39011784,53.9130853 8.77808558,52.7852329 8.67802473,52.133454 C8.52793346,51.1557856 5.66185387,50.7727533 5.37837192,51.1557856 C5.09488997,51.5388179 4.24294536,53.4863721 4.46904576,54.5016916 C4.61977937,55.1785713 5.63480461,55.5170112 7.5141215,55.5170112 Z" id="Path-37"></path>
                        <path d="M4.15687304,61.7879295 C4.33900948,60.7104189 4.19605521,60.1342928 3.72801024,60.0595514 C3.02594279,59.9474393 1.95967383,60.9926274 1.95967383,61.7879295 C1.95967383,62.5832316 2.5617518,62.9877188 3.35931242,62.8756066 C3.8910195,62.8008652 4.15687304,62.4383061 4.15687304,61.7879295 Z" id="Path-39"></path>
                        <path d="M45.3960028,9.53967246 C45.5580129,8.51853343 45.9302078,8.00796392 46.5125877,8.00796392 C47.3861574,8.00796392 47.4576702,9.95341466 47.3861574,10.4353076 C47.3146446,10.9172005 46.0250587,10.9403381 45.7105307,10.4353076 C45.5008454,10.0986206 45.3960028,9.80007553 45.3960028,9.53967246 Z" id="Path-41"></path>
                        <path d="M39.5454407,16.96116 C40.9525731,15.7373918 42.2100425,15.1754288 43.3178489,15.275271 C44.9795584,15.4250343 45.8222963,17.0404589 45.3103587,18.5420886 C44.7984211,20.0437182 43.6420118,20.8855059 42.8371714,20.8855059 C42.032331,20.8855059 39.5214603,19.4802127 39.1474097,19.1480831 C38.8980427,18.9266634 39.0307197,18.197689 39.5454407,16.96116 Z" id="Path-43"></path>
                        <path d="M22.4111166,37.5895617 C22.8261433,37.0347265 24.8013959,34.3532144 26.0612463,34.2382822 C27.3210968,34.12335 30.2232132,35.3893282 30.8703216,37.2740728 C31.5174299,39.1588173 31.8852214,40.4664585 29.659315,41.876964 C27.4334085,43.2874695 24.8797801,43.613446 23.3904803,42.1263669 C21.9011806,40.6392878 21.3940231,39.2478893 21.7305195,38.6649678 C22.0670158,38.0820462 21.9960898,38.1443969 22.4111166,37.5895617 Z" id="Path-46"></path>
                        <path d="M17.2441941,53.8023298 C17.2516222,53.7045333 17.2568408,53.6317176 17.2598498,53.5838825 C17.3577768,52.0271295 17.1238401,50.9708321 16.5580399,50.4149904 C15.6702219,49.5427986 13.9981231,48.9393686 12.4177164,50.4149904 C10.8373096,51.8906122 11.0359024,52.5035959 11.1384161,53.1529629 C11.2409298,53.8023298 12.3372603,54.8362887 13.2566905,55.0918692 C14.1761207,55.3474497 14.6115965,55.4382461 15.9278953,54.8362887" id="Path-48"></path>
                        <path d="M40.9677024,0.0879265879 C41.3891937,-0.175272179 41.9293522,0.224178475 41.9293522,0.351125354 C41.9293522,0.478072234 41.5912119,0.903709835 41.2794572,0.86821788 C40.9677024,0.832725925 40.546211,0.351125354 40.9677024,0.0879265879 Z" id="Path-52"></path>
                        <path d="M34.684572,0.808798765 C35.8991166,0.367475581 36.674354,0.257144785 37.0102842,0.477806377 C37.5141795,0.808798765 38.0180747,1.37188461 37.5141795,2.32365389 C37.0102842,3.27542316 35.4577346,3.42470206 35.0711533,3.27542316 C34.684572,3.12614427 34.684572,2.17145056 34.684572,1.64664817 C34.684572,1.29677991 34.684572,1.01749678 34.684572,0.808798765 Z" id="Path-54"></path>
                        <path d="M27.4020402,3.21028812 C28.3205261,4.32635723 28.8118375,4.99326036 28.8759745,5.21099753 C28.9721801,5.53760327 29.7427719,6.54254401 28.1390074,8.52132019 C26.5352429,10.5000964 25.5638508,8.91890984 24.9261337,8.22289533 C24.2884166,7.52688081 23.0729248,5.47592437 23.9995293,4.27305283 C24.9261337,3.0701813 25.9100105,2.93007448 26.404213,3.0701813 C26.7336814,3.16358584 27.0662905,3.21028812 27.4020402,3.21028812 Z" id="Path-56"></path>
                        <path d="M22.9714422,6.98705748 C23.3279846,7.51039766 24.6009832,9.41765821 24.6009832,10.0961261 C24.6009832,10.7745941 24.9396647,12.5300501 23.1343557,12.858118 C21.3290466,13.186186 19.8957054,12.4339427 19.0095587,10.0961261 C18.123412,7.75830963 19.5062825,6.75071031 19.8957054,6.45946359 C20.2851282,6.16821688 21.7847715,5.87697016 22.1625576,6.16821688 C22.5403438,6.45946359 22.6148997,6.46371731 22.9714422,6.98705748 Z" id="Path-57"></path>
                        <path d="M9.87057064,16.6600109 C10.7233859,15.7439552 11.6595523,15.2553537 12.6790697,15.1942065 C13.6985872,15.1330593 14.9344657,16.2817403 16.3867053,18.6402493 C17.1807508,19.7074007 16.8362509,20.8507645 15.3532057,22.0703407 C13.8701605,23.289917 11.910237,22.6801288 9.47343512,20.2409764 C8.80049226,19.581916 8.66761762,18.7376417 9.07481119,17.7081535 C9.48200477,16.6786653 9.74725792,16.3292844 9.87057064,16.6600109 Z" id="Path-59"></path>
                        <path d="M10.5288549,32.3136911 C11.4846863,30.4282309 11.292636,29.2308094 9.95270395,28.7214267 C7.94280583,27.9573527 5.68745496,26.9271555 4.61173866,27.7252593 C3.53602235,28.523363 2.9493172,30.9632687 3.53602235,31.4020663 C4.1227275,31.8408638 5.93087806,33.9021887 8.60068416,33.3110549 C10.3805549,32.9169657 11.0232785,32.5845111 10.5288549,32.3136911 Z" id="Path-61"></path>
                        <path d="M2.86637204,39.3708742 C3.51329023,39.3708742 6.39363904,39.460601 6.57116606,39.8686921 C6.74869308,40.2767831 7.92183275,42.0487222 5.76931765,43.4775725 C3.61680256,44.9064228 1.40650999,43.3886432 1.27552969,43.0458202 C1.14454939,42.7029972 0.662033122,41.052156 1.40650999,40.2115151 C2.15098686,39.3708742 2.21945384,39.3708742 2.86637204,39.3708742 Z" id="Path-63"></path>
                        <path d="M2.29500761,53.9472384 C3.50657371,52.9990304 4.09132122,52.2274858 4.04925013,51.6326045 C3.98614349,50.7402827 2.91549751,49.5253586 1.87857514,49.7357062 C0.841652774,49.9460537 0.372665399,50.9418825 0.372665399,51.8294534 C0.372665399,52.7170242 0.810021978,53.9472384 1.05799931,53.9472384 C1.22331753,53.9472384 1.63565363,53.9472384 2.29500761,53.9472384 Z" id="Path-65"></path>
                        <path d="M0.167684623,59.8281834 C0.280568619,59.275813 0.474991711,58.9996277 0.750953901,58.9996277 C1.16489718,58.9996277 1.6429069,59.2597575 1.6429069,59.7639962 C1.6429069,60.268235 1.48692367,61.5177006 1.26676811,61.7663869 C1.04661255,62.0150733 0.2788743,62.0816532 0.167684623,62.0150733 C0.0564949455,61.9484934 4.88498131e-15,60.6249577 4.88498131e-15,60.2791583 C4.88498131e-15,60.0486253 0.0558948742,59.8983004 0.167684623,59.8281834 Z" id="Path-67"></path>
                        <path d="M39.3182697,3.54619494 C39.6539945,3.23509951 41.1103724,2.41203228 41.9250618,2.46587977 C42.7397512,2.51972725 44.3275927,6.07366128 44.3847602,6.83615009 C44.4419276,7.59863889 44.8615836,9.12508889 43.0375786,10.1635461 C41.2135735,11.2020032 39.9528924,9.45848055 39.6355811,9.12508889 C39.3182697,8.79169724 38.4072307,7.42759023 38.4072307,6.47655047 C38.4072307,5.52551071 38.4072307,4.69802631 38.4072307,4.40775471 C38.4072307,4.11748311 38.9825449,3.85729037 39.3182697,3.54619494 Z" id="Path-29"></path>
                        <path d="M27.0309116,12.3487864 C28.0383716,11.9514508 28.9317823,11.8190057 29.7111435,11.9514508 C30.8801854,12.1501186 33.7865177,15.7207748 33.7865177,16.3919753 C33.7865177,17.0631758 33.219982,19.0147265 32.037023,20.2153571 C30.8540639,21.4159877 29.4477879,21.8025959 27.9667874,21.0089765 C26.485787,20.2153571 25.4193039,18.2333069 25.2670715,17.134061 C25.1148391,16.034815 25.3647058,14.1972696 25.68373,13.6099955 C25.8964129,13.2184794 26.3454734,12.7980763 27.0309116,12.3487864 Z" id="Path-31"></path>
                        <path d="M19.1856986,21.5714303 C19.9410795,20.0949715 20.9090718,19.2819306 22.0896756,19.1323075 C23.8605814,18.9078728 24.9570399,19.4892574 26.8189425,22.3614739 C28.6808451,25.2336903 25.407956,26.9515513 24.9570399,27.2487642 C24.5061237,27.5459771 21.762087,28.6307094 20.095667,26.0748469 C18.9847204,24.3709386 18.6813976,22.8697997 19.1856986,21.5714303 Z" id="Path-32"></path>
                        <path d="M12.7381971,33.9550899 C12.8972569,33.8150597 13.0220764,33.7194504 13.1126555,33.6682621 C13.6837076,33.3455476 14.4499436,33.3554075 15.4113634,33.6978419 C17.1966145,34.333705 18.4799912,35.1704444 18.4799912,35.7015573 C18.4799912,36.2326702 17.739598,39.2517052 15.6090942,39.639996 C13.4785903,40.0282869 11.881542,39.5606972 11.3147923,38.4660788 C10.7480425,37.3714604 11.024887,35.8117764 11.881542,34.7548091" id="Path-34"></path>
                        <path d="M10.5555574,49.9240244 C11.5715104,48.4056375 11.9101614,47.347899 11.5715104,46.7508089 C11.0635339,45.8551738 8.42944275,44.9595386 7.746217,45.8551738 C7.06299124,46.7508089 6.47483043,48.9745417 7.30814746,49.9240244 C7.86369214,50.5570128 8.94616211,50.5570128 10.5555574,49.9240244 Z" id="Path-36"></path>
                        <path d="M3.44988105,58.0190262 C3.29300962,57.3411649 3.3922854,56.8104026 3.74770839,56.4267392 C4.28084287,55.8512442 5.83464083,55.7744695 5.83464083,56.4267392 C5.83464083,57.079009 6.06545166,57.8526459 5.83464083,58.2642847 C5.60383,58.6759234 5.10816481,59.5595691 4.4279366,59.5595691 C3.97445112,59.5595691 3.64843261,59.0460548 3.44988105,58.0190262 Z" id="Path-38"></path>
                        <path d="M47.801087,8.05992059 C47.7709688,7.44572271 47.9122816,7.04663432 48.2250253,6.86265541 C48.5377689,6.6786765 48.6941408,7.0777649 48.6941408,8.05992059 L47.801087,8.05992059 Z" id="Path-40"></path>
                        <path d="M43.224925,12.306087 C43.7864648,11.1897333 44.2545811,10.6315564 44.629274,10.6315564 C45.1913134,10.6315564 46.612363,11.4178139 46.5575508,12.306087 C46.5027386,13.1943602 46.0336231,13.8933258 44.629274,14.4522038 C43.224925,15.0110818 42.9992528,13.7549209 42.9992528,13.030504 C42.9992528,12.5475593 43.0744769,12.306087 43.224925,12.306087 Z" id="Path-42"></path>
                        <path d="M35.5394382,21.1360229 C37.9744425,20.4716235 39.6175244,20.3055236 40.468684,20.6377233 C41.7454233,21.1360229 44.8249708,22.6166184 41.9734507,26.0306752 C39.1219306,29.4447319 35.8743066,26.6995619 35.3032746,26.3651185 C34.7322426,26.0306752 33.925047,23.5105708 34.7322426,22.074147 C35.270373,21.1165312 35.5394382,20.8038232 35.5394382,21.1360229 Z" id="Path-44"></path>
                        <path d="M34.3785325,26.5830326 C37.5250965,28.6656962 39.1166492,29.9401568 39.1531907,30.4064144 C39.2080029,31.1058007 38.3310074,35.2005233 35.2129201,35.7713908 C32.0948328,36.3422583 28.8626247,33.1144417 28.5770016,32.1629782 C28.2913786,31.2115148 28.5647973,28.4874667 30.1168824,27.5352496 C31.1516058,26.9004383 32.5721558,26.5830326 34.3785325,26.5830326 Z" id="Path-45"></path>
                        <path d="M17.3012274,43.3643304 C18.711168,42.1740159 20.0100643,41.6895766 21.1979164,41.9110127 C22.9796945,42.2431668 24.550157,44.5363516 24.3566825,45.8062089 C24.1632081,47.0760661 24.2816618,48.3429063 22.06102,49.2995733 C19.8403781,50.2562403 18.5606391,50.6651116 16.9350445,48.4946168 C15.3094498,46.3241221 16.5688616,44.6601911 16.9350445,44.1649769 C17.1791664,43.8348342 17.3012274,43.567952 17.3012274,43.3643304 Z" id="Path-47"></path>
                        <path d="M8.40944688,56.3545432 C9.19406879,55.3419904 10.0399649,54.8862842 10.9471353,54.9874246 C12.3078908,55.1391351 12.8184117,56.4742163 12.8573113,57.3847667 C12.896211,58.2953172 11.9551619,59.0665123 10.7941691,59.7757876 C9.63317628,60.485063 7.64490848,59.7419217 7.68395433,58.6069271 C7.70998491,57.850264 7.95181575,57.0994694 8.40944688,56.3545432 Z" id="Path-49"></path>
                        <path d="M5.78094397,60.9529808 C5.98353397,60.1362917 6.36502323,59.7407333 6.92541174,59.7663057 C7.76599451,59.8046644 8.04267903,60.2615199 7.76599451,61.2805376 C7.48930999,62.2995553 6.90406082,63.0645728 6.48947276,62.7977864 C6.07488471,62.531 5.78094397,61.9066308 5.78094397,61.5167233 C5.78094397,61.2567849 5.78094397,61.0688708 5.78094397,60.9529808 Z" id="Path-50"></path>
                        <path d="M4.0731629,63.7301461 C4.34619143,63.3484276 4.83784753,63.0976158 5.34193397,63.1343941 C5.8460204,63.1711724 5.2726166,63.5623729 4.83784753,64.0913484 C4.40307847,64.6203238 3.80013436,64.1118647 4.0731629,63.7301461 Z" id="Path-51"></path>
                        <path d="M38.4298238,0.174994867 C39.0554983,0.174994867 40.243928,0.281337803 40.243928,0.775034883 C40.243928,1.26873196 40.243928,1.83753374 39.3368759,1.83753374 C38.4298238,1.83753374 38.2670456,1.23749373 38.231053,1.0062643 C38.1950605,0.775034883 37.8041493,0.174994867 38.4298238,0.174994867 Z" id="Path-53"></path>
                        <path d="M29.6224811,2.66115978 C30.5781321,1.67624696 31.2510299,1.19562119 31.6411744,1.2192825 C32.2263911,1.25477445 33.5259105,1.97577956 33.634294,2.98962652 C33.7426775,4.00347349 34.1606508,4.47031898 33.5259105,5.0082813 C32.8911702,5.54624363 32.2745615,6.20836134 31.6411744,6.17286938 C31.0077872,6.13737743 30.0796943,5.68209673 29.7924307,5.0082813 C29.6009216,4.55907102 29.5442718,3.77669718 29.6224811,2.66115978 Z" id="Path-55"></path>
                        <path d="M14.2755951,15.1173737 C13.2948666,13.5166467 13.1770565,12.2325557 13.9221648,11.2651009 C15.0398273,9.81391858 16.9260518,9.67487519 17.9806597,10.3222378 C19.0352676,10.9696004 20.2506241,13.1050995 20.2867519,14.1112366 C20.3228798,15.1173737 20.4388406,15.6631788 19.5647366,16.5718792 C18.6906325,17.4805796 17.729524,17.9994002 16.3967182,16.8659174 C15.5081811,16.1102623 14.80114,15.5274144 14.2755951,15.1173737 Z" id="Path-58"></path>
                        <path d="M6.30731112,23.3237252 C6.82266267,22.1633465 7.43891055,21.4767699 8.15605475,21.2639954 C9.23177106,20.9448337 13.0067911,23.3137555 13.2836358,23.6891461 C13.5604805,24.0645366 14.1953561,25.5630415 12.6579613,27.4426529 C11.6330315,28.6957272 9.92320632,28.4296926 7.52848592,26.6445492 C6.60684286,26.0570088 6.12198121,25.4175565 6.07390097,24.7261924 C6.02582074,24.0348282 6.10362412,23.5673391 6.30731112,23.3237252 Z" id="Path-60"></path>
                        <path d="M4.56113263,33.4621948 C6.61378878,34.1083168 7.87181307,34.7141613 8.33520549,35.2797285 C9.03029413,36.1280793 8.64953115,38.0709647 7.87325638,38.8322472 C7.0969816,39.5935297 2.98788062,38.6468117 2.50793524,38.0709647 C2.02798987,37.4951177 1.54804449,35.2934202 2.02798987,34.7274099 C2.34795345,34.3500697 3.19233437,33.9283313 4.56113263,33.4621948 Z" id="Path-62"></path>
                        <path d="M1.18866053,44.7653855 C2.52038378,44.4235816 3.54675696,44.4235816 4.26778006,44.7653855 C5.34931471,45.2780914 5.86933847,47.582144 4.44611894,48.6683041 C3.02289941,49.7544643 1.49351447,49.2020128 1.18866053,48.6683041 C0.883806585,48.1345955 0.486671068,46.9140445 0.593566147,46.1041101 C0.664829534,45.5641538 0.863194327,45.1179123 1.18866053,44.7653855 Z" id="Path-64"></path>
                        <path d="M1.15958282,54.4529892 C1.87032951,54.1251179 2.34898185,54.1251179 2.59553985,54.4529892 C2.96537684,54.9447961 3.29182288,56.9972783 2.22570285,57.7880736 C1.15958282,58.5788689 0.488442222,58.1996058 0.238234517,56.9972783 C-0.0119731883,55.7949508 -0.182698381,54.4529892 0.488442222,54.4529892 C0.93586929,54.4529892 1.15958282,54.4529892 1.15958282,54.4529892 Z" id="Path-66"></path>
                    </g>
                </g>
            </g>
        </g>
    </g>
</svg>