<?xml version="1.0" encoding="UTF-8" standalone="no"?>
<svg width="83px" height="131px" viewBox="0 0 83 131" version="1.1" xmlns="http://www.w3.org/2000/svg" xmlns:xlink="http://www.w3.org/1999/xlink">
    <!-- Generator: Sketch 47 (45396) - http://www.bohemiancoding.com/sketch -->
    <title>Group 7</title>
    <desc>Created with Sketch.</desc>
    <defs></defs>
    <g id="Page-1" stroke="none" stroke-width="1" fill="none" fill-rule="evenodd">
        <g id="Desktop-Copy-5" transform="translate(-913.000000, -1628.000000)">
            <g id="Group-7" transform="translate(896.000000, 1628.000000)">
                <path d="M94.4956151,19.3233561 C101.330974,37.5053707 101.860733,53.0202794 96.0848933,65.8680823 C87.4211331,85.1397865 68.1733142,99.914379 61.990774,104.146843 C55.8082338,108.379307 39.2028522,117.777166 28.5424778,120.550258 C17.8821033,123.32335 11.6776223,125.214917 11.2540691,117.777166 C10.830516,110.339415 10.9135095,89.2484941 11.6776223,82.3476551 C12.441735,75.4468161 19.8224346,35.7743698 30.1622823,30.387165 C40.5021301,24.9999602 56.1964908,8.07867271 79.3898406,10.4490809 C85.8017211,11.6753359 85.9425593,13.1676058 89.8731125,12.1511991 C93.8036657,11.1347924 101.491527,10.1074434 102.444986,8.35572236 C103.398446,6.60400127 104.820716,11.8372802 103.398446,12.8726534 C101.976175,13.9080265 98.4068129,12.3270034 96.0848933,15.6733646 C94.5369469,17.904272 94.0071875,19.1209358 94.4956151,19.3233561 Z" id="Path-26" stroke="#B3B5BE" fill="#B3B5BE" transform="translate(57.500000, 65.500000) scale(1, -1) rotate(-191.000000) translate(-57.500000, -65.500000) "></path>
                <path d="M46,16 C63.3995673,16.4401525 74.7456388,22.5533821 80.0382147,34.3396888 C87.9770785,52.0191488 87.585663,61.192814 90.825299,65.3299421 C94.0649351,69.4670702 95.9480623,104.459196 90.825299,118" id="Path-72" stroke="#FFFFFF"></path>
                <path d="M35.2117215,16 C23.0028167,46.7307584 26.2954835,72.6645235 45.0897221,93.8012951 C63.8839606,114.938067 76.8540533,124.979252 84,123.924851" id="Path-68" stroke="#FFFFFF"></path>
                <path d="M39.9239848,18 C38.1732536,37.7052762 38.9104365,50.8370508 42.1355336,57.3953238 C46.9731792,67.2327333 63.6986027,80.6653518 69.3700341,93.3511439 C75.0414654,106.036936 81.3403464,118.434627 85,122" id="Path-69" stroke="#FFFFFF"></path>
                <path d="M45,18 C48.6522265,26.029676 52.4200605,31.9598351 56.3035019,35.7904773 C62.1286641,41.5364407 68.9316472,40.652301 73,50" id="Path-70" stroke="#FFFFFF"></path>
                <path d="M78,77 C79.2645882,79.2473224 85.2291974,88.8130175 85.4823046,94.0711878 C85.7354118,99.3293581 84.3968822,108.069468 87,118" id="Path-71" stroke="#FFFFFF"></path>
            </g>
        </g>
    </g>
</svg>