<?xml version="1.0" encoding="UTF-8" standalone="no"?>
<svg width="56px" height="41px" viewBox="0 0 56 41" version="1.1" xmlns="http://www.w3.org/2000/svg" xmlns:xlink="http://www.w3.org/1999/xlink">
    <!-- Generator: Sketch 47 (45396) - http://www.bohemiancoding.com/sketch -->
    <title>Group 8</title>
    <desc>Created with Sketch.</desc>
    <defs></defs>
    <g id="Page-1" stroke="none" stroke-width="1" fill="none" fill-rule="evenodd">
        <g id="Desktop-Copy-5" transform="translate(-640.000000, -1577.000000)">
            <g id="Plaisir" transform="translate(-25.000000, 1520.000000)">
                <g id="Group-8" transform="translate(666.000000, 57.000000)">
                    <g id="Group-6" opacity="0.358267257" transform="translate(0.000000, 1.000000)">
                        <path d="M28.729674,3.84009468 C31.0816255,10.0061692 31.2639083,15.2677469 29.2765224,19.6248279 C26.2954436,26.1604493 19.6725382,31.1709633 17.5452126,32.6063206 C15.4178869,34.0416779 9.70420723,37.228778 6.03612139,38.1692179 C2.36803555,39.1096578 0.233160352,39.7511456 0.0874216397,37.228778 C-0.0583170729,34.7064104 -0.029760163,27.5538371 0.233160352,25.2135526 C0.496080867,22.8732681 3.03567641,9.41913411 6.59347349,7.59216899 C10.1512706,5.76520388 15.5514807,0.0266803094 23.5319882,0.830557873 C25.7382266,1.24641828 25.7866871,1.75249241 27.1391355,1.40779796 C28.4915839,1.0631035 31.1368694,0.714698212 31.4649414,0.120636279 C31.7930135,-0.473425655 32.2823968,1.30133849 31.7930135,1.65246505 C31.3036303,2.00359161 30.0754625,1.46741855 29.2765224,2.60227146 C28.7438957,3.35884006 28.5616129,3.7714478 28.729674,3.84009468 Z" id="Path-26" stroke="#292F48" fill="#292F48"></path>
                        <path d="M28.5219229,3.7170939 C29.5095882,9.6538195 28.9669311,14.3373254 26.8939516,17.7676115 C23.7844823,22.9130407 18.5593856,27.8110109 16.8393538,28.3705828 C15.119322,28.9301547 12.6280994,32.9979217 10.9865985,34.0601355 C9.34509751,35.1223494 3.61028553,38.0992946 2.86144815,37.9974502 C2.11261076,37.8956059 1.95584316,37.3963968 2.11261076,35.4685058 C2.26937837,33.5406148 1.67730859,25.5266647 2.26937837,22.7943176 C2.86144815,20.0619705 5.46061388,11.4249388 7.1512334,9.72963061 C8.84185291,8.03432241 15.5663891,1.88074841 23.0479981,2.00176012 C28.0357374,2.08243459 29.860379,2.65421252 28.5219229,3.7170939 Z M25.7766086,5.62221992 C26.8365283,4.74314882 25.3915997,4.27025179 21.4418226,4.20352883 C15.5171569,4.10344438 10.1920152,9.19284488 8.85321825,10.5949735 C7.5144213,11.9971022 5.45614909,19.1404816 4.98729066,21.4003079 C4.51843222,23.6601342 4.98729066,30.2881852 4.86314682,31.8826747 C4.73900298,33.4771643 4.86314682,33.8900422 5.45614909,33.974274 C6.04915136,34.0585058 10.5905332,31.5963812 11.8904333,30.7178621 C13.1903334,29.8393431 15.1631257,26.4750388 16.5252142,26.012237 C17.8873027,25.5494352 22.0250424,21.4984995 24.4874226,17.2428994 C26.1290094,14.4058327 26.5587381,10.5322729 25.7766086,5.62221992 Z" id="Combined-Shape" fill="#FFFFFF"></path>
                        <g id="Group-5" transform="translate(5.000000, 5.000000)" fill="#FFFFFF">
                            <path d="M19.9605361,0.751618339 C20.1308804,0.450132827 20.4148197,0.299390071 20.812354,0.299390071 C21.4086554,0.299390071 21.4866177,1.79552174 21.4086554,1.95472131 C21.330693,2.11392088 20.6061527,2.82094095 20.3090114,2.38783113 C20.1109172,2.09909125 19.9947588,1.55368699 19.9605361,0.751618339 Z" id="Path-28"></path>
                            <path d="M14.4402062,3.63832248 C14.8973418,2.95658225 15.3243562,2.60227184 15.7212496,2.57539124 C16.3165896,2.53507035 16.6264203,2.79584233 17.0518005,3.74986185 C17.4771807,4.70388137 17.9100592,4.69572658 17.8854496,5.08770003 C17.86084,5.47967348 17.2891482,6.57748909 16.7098621,6.60068493 C16.1305759,6.62388077 15.1227372,6.7225537 14.7038939,5.71335345 C14.424665,5.04055328 14.3367691,4.34887629 14.4402062,3.63832248 Z" id="Path-30"></path>
                            <path d="M7.6247017,11.4738953 C8.13554249,11.4738953 9.50983306,11.8526399 9.67979289,12.2283943 C9.84975272,12.6041488 10.203323,13.7754481 9.50983306,14.1773885 C8.81634312,14.579329 8.36769916,14.492707 7.6247017,14.4049977 C6.88170423,14.3172884 6.42104388,13.7061324 6.42104388,13.2102308 C6.42104388,12.7143291 6.75029298,12.0220782 6.92131025,11.9012061 C7.09232752,11.7803341 7.1138609,11.4738953 7.6247017,11.4738953 Z" id="Path-33"></path>
                            <path d="M3.93634268,17.63674 C4.12950216,17.2176443 4.46224402,17.0349771 4.93456829,17.0887383 C5.64305468,17.16938 6.37336284,17.7351411 6.37336284,17.9397356 C6.37336284,18.1443302 6.47929934,18.7165244 6.02286876,19.2202185 C5.56643817,19.7239125 4.59926292,19.5205865 4.08092389,19.0712577 C3.73536454,18.7717052 3.6871708,18.2935326 3.93634268,17.63674 Z" id="Path-35"></path>
                            <path d="M3.37368721,23.9150202 C3.76699168,23.2240983 3.94118128,22.7382542 3.896256,22.4574879 C3.82886808,22.0363384 2.54205684,21.8713399 2.41477923,22.0363384 C2.28750162,22.2013369 1.90499587,23.0402833 2.00651034,23.4776518 C2.07418665,23.7692307 2.52991228,23.9150202 3.37368721,23.9150202 Z" id="Path-37"></path>
                            <path d="M1.86635116,26.6163389 C1.94812671,26.1521804 1.88394316,25.9040031 1.67380052,25.8718068 C1.35858656,25.8235123 0.879853554,26.2737472 0.879853554,26.6163389 C0.879853554,26.9589305 1.15017428,27.1331712 1.50826272,27.0848767 C1.74698835,27.0526804 1.86635116,26.8965011 1.86635116,26.6163389 Z" id="Path-39"></path>
                            <path d="M20.3818788,4.10939737 C20.454618,3.66952209 20.621726,3.44958446 20.8832026,3.44958446 C21.2754176,3.44958446 21.3075254,4.28762478 21.2754176,4.49520942 C21.2433098,4.70279407 20.664312,4.71276103 20.5230954,4.49520942 C20.428951,4.35017502 20.3818788,4.221571 20.3818788,4.10939737 Z" id="Path-41"></path>
                            <path d="M17.7550958,7.30634587 C18.3868696,6.77918416 18.9514477,6.53710779 19.4488301,6.58011674 C20.1949038,6.64463017 20.5732759,7.34050537 20.3434264,7.98736123 C20.1135768,8.63421709 19.5943726,8.9968333 19.2330157,8.9968333 C18.8716588,8.9968333 17.7443291,8.39147625 17.576388,8.24840503 C17.4644273,8.15302422 17.5239966,7.8390045 17.7550958,7.30634587 Z" id="Path-43"></path>
                            <path d="M10.062134,16.1924266 C10.2484725,15.9534206 11.1353206,14.7983077 11.7009677,14.7487985 C12.2666149,14.6992892 13.5696059,15.2446337 13.8601444,16.0565237 C14.1506828,16.8684136 14.3158137,17.4317052 13.3164271,18.0393076 C12.3170406,18.64691 11.1705135,18.7873306 10.5018483,18.1467427 C9.83318311,17.5061547 9.60547977,16.9067831 9.75655975,16.6556784 C9.90763974,16.4045737 9.87579542,16.4314325 10.062134,16.1924266 Z" id="Path-46"></path>
                            <path d="M7.74229122,23.1763882 C7.74562629,23.1342605 7.74796933,23.1028937 7.74932033,23.0822878 C7.79328754,22.4116866 7.68825476,21.9566662 7.43422199,21.7172266 C7.03560981,21.3415132 6.28487161,21.0815742 5.57530124,21.7172266 C4.86573086,22.3528791 4.95489497,22.6169336 5.00092151,22.8966609 C5.04694805,23.1763882 5.53917811,23.6217859 5.9519835,23.7318821 C6.36478889,23.8419783 6.56030862,23.8810906 7.15129992,23.6217859" id="Path-48"></path>
                            <path d="M18.3936623,0.0378760686 C18.5829033,-0.0755018615 18.8254234,0.096569189 18.8254234,0.151253999 C18.8254234,0.205938809 18.6736053,0.38929039 18.5336338,0.374001548 C18.3936623,0.358712706 18.2044213,0.151253999 18.3936623,0.0378760686 Z" id="Path-52"></path>
                            <path d="M15.572665,0.348405622 C16.1179707,0.158297173 16.4660365,0.110770061 16.6168623,0.205824285 C16.843101,0.348405622 17.0693397,0.590965678 16.843101,1.0009586 C16.6168623,1.41095152 15.9197992,1.47525627 15.7462321,1.41095152 C15.572665,1.34664676 15.572665,0.935394087 15.572665,0.709325366 C15.572665,0.558612885 15.572665,0.438306304 15.572665,0.348405622 Z" id="Path-54"></path>
                            <path d="M12.3029568,1.38289334 C12.7153382,1.86366158 12.935927,2.15094293 12.9647233,2.2447374 C13.0079176,2.3854291 13.3538976,2.81832665 12.6338401,3.67072254 C11.9137825,4.52311844 11.4776473,3.84199193 11.1913253,3.5421703 C10.9050034,3.24234866 10.3592724,2.35885973 10.7752989,1.84069968 C11.1913253,1.32253964 11.6330659,1.26218593 11.8549528,1.32253964 C12.0028774,1.36277544 12.152212,1.38289334 12.3029568,1.38289334 Z" id="Path-56"></path>
                            <path d="M10.3137087,3.00980938 C10.473789,3.23524822 11.0453394,4.05683738 11.0453394,4.34910049 C11.0453394,4.6413636 11.1974005,5.39756004 10.3868536,5.53888162 C9.57630665,5.6802032 8.93276568,5.35615992 8.53490391,4.34910049 C8.13704213,3.34204107 8.75792278,2.90799829 8.93276568,2.78253816 C9.10760859,2.65707804 9.7809178,2.53161792 9.95053607,2.65707804 C10.1201543,2.78253816 10.1536284,2.78437053 10.3137087,3.00980938 Z" id="Path-57"></path>
                            <path d="M4.43168478,7.1766201 C4.81458142,6.78201145 5.23490101,6.57153697 5.69264355,6.54519664 C6.15038608,6.51885632 6.70527031,7.01367272 7.35729624,8.02964587 C7.71380647,8.48934184 7.55913307,8.98186778 6.89327605,9.5072237 C6.22741902,10.0325796 5.34745335,9.76990166 4.25337904,8.71918982 C3.95124142,8.4352869 3.89158342,8.07159952 4.07440503,7.62812766 C4.25722663,7.1846558 4.37631988,7.03415328 4.43168478,7.1766201 Z" id="Path-59"></path>
                            <path d="M4.72724097,13.9197439 C5.15638979,13.1075456 5.07016311,12.5917333 4.46856096,12.3723069 C3.56615772,12.0431673 2.55355121,11.5993901 2.07057654,11.9431886 C1.58760187,12.2869871 1.32418323,13.3380235 1.58760187,13.5270439 C1.85102051,13.7160644 2.66284321,14.6040198 3.86153166,14.3493775 C4.6606573,14.179616 4.94922707,14.0364048 4.72724097,13.9197439 Z" id="Path-61"></path>
                            <path d="M1.28694255,16.9597612 C1.57739561,16.9597612 2.87061345,16.9984128 2.95031945,17.1742058 C3.03002546,17.3499989 3.55674123,18.1132957 2.59030588,18.7288005 C1.62387054,19.3443052 0.631494283,18.6904925 0.572686801,18.5428149 C0.513879319,18.3951372 0.297239361,17.6840057 0.631494283,17.3218834 C0.965749204,16.9597612 0.996489479,16.9597612 1.28694255,16.9597612 Z" id="Path-63"></path>
                            <path d="M1.03041158,23.2388104 C1.57438003,22.8303515 1.83691973,22.4979939 1.81803067,22.2417373 C1.78969708,21.8573525 1.30899888,21.3340006 0.843441901,21.4246119 C0.377884919,21.5152231 0.167319159,21.9441955 0.167319159,22.3265338 C0.167319159,22.708872 0.363683337,23.2388104 0.475020097,23.2388104 C0.549244603,23.2388104 0.734375098,23.2388104 1.03041158,23.2388104 Z" id="Path-65"></path>
                            <path d="M0.0752869735,25.7721406 C0.125969584,25.5341963 0.213261585,25.4152242 0.337162976,25.4152242 C0.523015063,25.4152242 0.73763167,25.5272801 0.73763167,25.7444907 C0.73763167,25.9617012 0.667598382,26.4999326 0.568753028,26.607059 C0.469907674,26.7141854 0.125208869,26.742866 0.0752869735,26.7141854 C0.0253650776,26.6855048 9.99200722e-16,26.1153664 9.99200722e-16,25.9664066 C9.99200722e-16,25.8671001 0.0250956578,25.8023448 0.0752869735,25.7721406 Z" id="Path-67"></path>
                            <path d="M17.6531007,1.52759167 C17.8038343,1.39358133 18.4577182,1.03902929 18.8234971,1.06222513 C19.1892761,1.08542097 19.9021845,2.6163464 19.9278515,2.94480311 C19.9535185,3.27325983 20.1419355,3.93080752 19.3229945,4.37814292 C18.5040534,4.82547831 17.9380333,4.07442239 17.795567,3.93080752 C17.6531007,3.78719266 17.2440627,3.19957733 17.2440627,2.78989866 C17.2440627,2.38022 17.2440627,2.02376518 17.2440627,1.8987251 C17.2440627,1.77368503 17.5023671,1.66160201 17.6531007,1.52759167 Z" id="Path-29"></path>
                            <path d="M12.1363277,5.31947721 C12.5886567,5.14831729 12.9897798,5.09126398 13.3396971,5.14831729 C13.864573,5.23389725 15.1694569,6.77202607 15.1694569,7.06115859 C15.1694569,7.35029111 14.915094,8.19095909 14.3839695,8.70815383 C13.852845,9.22534857 13.2214558,9.39188745 12.5565168,9.05002064 C11.8915778,8.70815383 11.4127487,7.85434758 11.3443995,7.38082626 C11.2760502,6.90730494 11.3882352,6.1157469 11.5314706,5.86276727 C11.6269609,5.69411419 11.8285799,5.5130175 12.1363277,5.31947721 Z" id="Path-31"></path>
                            <path d="M8.61398711,9.29230843 C8.95313772,8.65629542 9.38774653,8.3060624 9.91781356,8.24160938 C10.7129141,8.14492984 11.2052016,8.39537242 12.0411579,9.6326349 C12.8771141,10.8698974 11.4076537,11.609899 11.2052016,11.7379292 C11.0027494,11.8659593 9.77073294,12.3332287 9.02254439,11.2322418 C8.52375202,10.4982505 8.38756626,9.85160604 8.61398711,9.29230843 Z" id="Path-32"></path>
                            <path d="M5.71919053,14.6268079 C5.79060514,14.5664872 5.84664653,14.5253017 5.8873147,14.5032514 C6.14370545,14.3642359 6.48772976,14.3684832 6.91938763,14.5159934 C7.72092895,14.7899037 8.29713892,15.1503453 8.29713892,15.3791324 C8.29713892,15.6079195 7.96471749,16.9084269 7.00816472,17.0756906 C6.05161196,17.2429544 5.3345699,17.0415311 5.08011081,16.5700032 C4.82565172,16.0984752 4.94994927,15.4266114 5.3345699,14.9713024" id="Path-34"></path>
                            <path d="M4.73922984,21.5057336 C5.19537203,20.8516592 5.34741943,20.396018 5.19537203,20.13881 C4.96730093,19.7529979 3.78464777,19.3671859 3.47789335,19.7529979 C3.17113892,20.13881 2.90706672,21.0967257 3.28120906,21.5057336 C3.53063729,21.7784055 4.01664421,21.7784055 4.73922984,21.5057336 Z" id="Path-36"></path>
                            <path d="M1.54892619,24.9928113 C1.47849411,24.7008095 1.52306691,24.4721734 1.68264458,24.3069031 C1.92201108,24.0589975 2.61963466,24.0259253 2.61963466,24.3069031 C2.61963466,24.5878808 2.72326401,24.9211398 2.61963466,25.0984611 C2.51600531,25.2757824 2.29346175,25.6564298 1.98805317,25.6564298 C1.78444744,25.6564298 1.63807178,25.4352236 1.54892619,24.9928113 Z" id="Path-38"></path>
                            <path d="M21.4617125,3.47196579 C21.4481901,3.20738825 21.5116366,3.03547325 21.6520522,2.95622079 C21.7924677,2.87696834 21.8626754,3.04888334 21.8626754,3.47196579 L21.4617125,3.47196579 Z" id="Path-40"></path>
                            <path d="M19.4071092,5.30108364 C19.6592291,4.8201928 19.8694038,4.57974739 20.0376332,4.57974739 C20.2899774,4.57974739 20.9279997,4.91844289 20.9033902,5.30108364 C20.8787806,5.68372439 20.6681573,5.98481726 20.0376332,6.22556471 C19.4071092,6.46631215 19.305787,5.9251967 19.305787,5.61314017 C19.305787,5.40510248 19.3395611,5.30108364 19.4071092,5.30108364 Z" id="Path-42"></path>
                            <path d="M15.9564825,9.10474832 C17.0497497,8.81854549 17.78746,8.74699478 18.1696132,8.8900962 C18.7428431,9.10474832 20.1254971,9.74254331 18.8452228,11.2132139 C17.5649484,12.6838845 16.1068315,11.5013497 15.8504498,11.3572818 C15.5940681,11.2132139 15.2316538,10.1276305 15.5940681,9.50886334 C15.8356777,9.09635191 15.9564825,8.9616469 15.9564825,9.10474832 Z" id="Path-44"></path>
                            <path d="M15.4352595,11.4511525 C16.8480025,12.3482999 17.5625772,12.8972983 17.5789836,13.0981477 C17.6035932,13.3994218 17.2098401,15.1633023 15.8098825,15.4092145 C14.4099249,15.6551266 12.9587294,14.2646826 12.8304905,13.8548214 C12.7022516,13.4449602 12.825011,12.2715241 13.5218656,11.8613383 C13.9864353,11.5878811 14.6242332,11.4511525 15.4352595,11.4511525 Z" id="Path-45"></path>
                            <path d="M7.767898,18.6800193 C8.40093256,18.1672684 8.98411051,17.9585869 9.51743184,18.0539747 C10.3174138,18.1970565 11.0225195,19.1848899 10.9356534,19.7319054 C10.8487873,20.2789208 10.9019706,20.8246366 9.90494775,21.2367393 C8.90792488,21.648842 8.33334818,21.8249711 7.60348935,20.8899888 C6.87363053,19.9550064 7.43908071,19.2382362 7.60348935,19.0249131 C7.71309512,18.8826978 7.767898,18.7677332 7.767898,18.6800193 Z" id="Path-47"></path>
                            <path d="M3.77567003,24.2758032 C4.12794925,23.8396266 4.50773935,23.6433224 4.91504032,23.6868906 C5.52599177,23.7522428 5.75520526,24.3273547 5.7726704,24.7195918 C5.79013554,25.1118289 5.3676237,25.4440361 4.84636163,25.7495701 C4.32509956,26.0551041 3.43240789,25.7349816 3.44993868,25.2460609 C3.46162588,24.9201137 3.57020299,24.5966945 3.77567003,24.2758032 Z" id="Path-49"></path>
                            <path d="M2.59552586,26.2566686 C2.68648464,25.9048641 2.85776553,25.7344697 3.10936854,25.7454855 C3.48677305,25.7620093 3.61099875,25.9588086 3.48677305,26.39777 C3.36254734,26.8367315 3.09978241,27.1662775 2.91364083,27.0513541 C2.72749926,26.9364308 2.59552586,26.6674717 2.59552586,26.4995116 C2.59552586,26.3875381 2.59552586,26.3065905 2.59552586,26.2566686 Z" id="Path-50"></path>
                            <path d="M1.82876701,27.452986 C1.95135126,27.2885534 2.17209481,27.1805114 2.39841933,27.1963544 C2.62474385,27.2121973 2.36729725,27.3807145 2.17209481,27.6085808 C1.97689237,27.8364472 1.70618277,27.6174187 1.82876701,27.452986 Z" id="Path-51"></path>
                            <path d="M17.2542066,0.0753824041 C17.5351217,0.0753824041 18.0687024,0.121191669 18.0687024,0.33386118 C18.0687024,0.546530692 18.0687024,0.791552996 17.6614545,0.791552996 C17.2542066,0.791552996 17.1811225,0.53307422 17.1649626,0.4334677 C17.1488027,0.33386118 16.9732915,0.0753824041 17.2542066,0.0753824041 Z" id="Path-53"></path>
                            <path d="M13.2998895,1.14634575 C13.7289573,0.722075611 14.0310746,0.515036822 14.2062415,0.525229384 C14.4689919,0.540518226 15.0524496,0.85110504 15.1011116,1.28783912 C15.1497736,1.7245732 15.337435,1.92567587 15.0524496,2.15741348 C14.7674642,2.3891511 14.4906195,2.67437104 14.2062415,2.6590822 C13.9218636,2.64379335 13.5051689,2.44767244 13.3761934,2.15741348 C13.2902097,1.96390752 13.2647751,1.62688494 13.2998895,1.14634575 Z" id="Path-55"></path>
                            <path d="M6.40945086,6.51209945 C5.96912376,5.82255549 5.91622943,5.26940862 6.25076786,4.85265884 C6.7525755,4.22753416 7.59945184,4.16763854 8.07294927,4.44650244 C8.5464467,4.72536634 9.09211695,5.64527364 9.1083376,6.07868654 C9.12455826,6.51209945 9.17662233,6.7472155 8.78416744,7.13865567 C8.39171255,7.53009583 7.96019443,7.75358778 7.36179185,7.26531828 C6.9628568,6.93980528 6.6454098,6.68873234 6.40945086,6.51209945 Z" id="Path-58"></path>
                            <path d="M2.83185397,10.0471431 C3.0632363,9.54728772 3.33991902,9.25153165 3.66190213,9.15987495 C4.1448768,9.02238989 5.83978375,10.0428485 5.96408139,10.2045552 C6.08837902,10.3662619 6.3734252,11.0117717 5.68316631,11.8214505 C5.22299371,12.3612363 4.45531712,12.2466368 3.38013653,11.477652 C2.96633761,11.2245576 2.74864462,10.9491013 2.72705758,10.6512829 C2.70547054,10.3534644 2.74040267,10.1520845 2.83185397,10.0471431 Z" id="Path-60"></path>
                            <path d="M2.04785547,14.4144839 C2.96945619,14.6928134 3.53428342,14.9537926 3.74233716,15.1974215 C4.05441777,15.5628649 3.88346297,16.3998002 3.53493143,16.7277373 C3.1863999,17.0556743 1.34149742,16.6478574 1.12601174,16.3998002 C0.910526063,16.151743 0.695040384,15.2033195 0.910526063,14.9594996 C1.05418318,14.7969531 1.43329298,14.6152812 2.04785547,14.4144839 Z" id="Path-62"></path>
                            <path d="M0.533684318,19.2835507 C1.13160088,19.1363121 1.59242149,19.1363121 1.91614615,19.2835507 C2.40173313,19.5044086 2.63521319,20.4969236 1.99621667,20.9648079 C1.35722014,21.4326923 0.670557517,21.1947132 0.533684318,20.9648079 C0.39681112,20.7349027 0.218505377,20.2091269 0.266499087,19.860232 C0.298494893,19.6276355 0.387556637,19.4354084 0.533684318,19.2835507 Z" id="Path-64"></path>
                            <path d="M0.520629023,23.4566723 C0.839739779,23.3154354 1.05464491,23.3154354 1.16534442,23.4566723 C1.33139368,23.6685275 1.47796129,24.5526737 0.999295157,24.893324 C0.520629023,25.2339743 0.219300589,25.0705994 0.106962436,24.5526737 C-0.00537571719,24.034748 -0.0820278444,23.4566723 0.219300589,23.4566723 C0.420186212,23.4566723 0.520629023,23.4566723 0.520629023,23.4566723 Z" id="Path-66"></path>
                        </g>
                    </g>
                    <g id="Group-7" transform="translate(25.000000, 0.000000)">
                        <path d="M27.2406625,6.34777485 C29.2251215,11.723327 29.3789226,16.3103435 27.7020658,20.1088243 C25.1867806,25.8065456 19.5987041,30.174686 17.8037731,31.4260231 C16.0088421,32.6773602 11.1879248,35.4558578 8.09297742,36.2757284 C4.99802999,37.0955991 3.19672905,37.6548449 3.07376201,35.4558578 C2.95079497,33.2568706 2.97488986,27.0212939 3.19672905,24.9810459 C3.41856823,22.9407978 5.56135197,11.2115528 8.56324326,9.61881399 C11.5651345,8.02607518 16.1215618,3.02325976 22.855115,3.72407609 C24.7166287,4.08662106 24.7575172,4.5278139 25.8986456,4.22731104 C27.0397739,3.92680818 29.2717335,3.62307024 29.5485443,3.10517009 C29.8253552,2.58726994 30.2382723,4.13450023 29.8253552,4.44061056 C29.412438,4.74672089 28.3761715,4.27928797 27.7020658,5.26864691 C27.252662,5.92821954 27.0988609,6.28792885 27.2406625,6.34777485 Z" id="Path-26" stroke="#B3B5BE" fill="#B3B5BE" transform="translate(16.500000, 20.000000) scale(1, -1) rotate(-191.000000) translate(-16.500000, -20.000000) "></path>
                        <path d="M14,5 C19.0748738,5.12945663 22.3841447,6.92746533 23.9278126,10.3940261 C26.2433146,15.5938673 26.1291517,18.2920041 27.0740456,19.5088065 C28.0189394,20.7256089 28.5681848,31.0174107 27.0740456,35" id="Path-72" stroke="#FFFFFF"></path>
                        <path d="M10.0604918,5 C6.57223334,13.8208658 7.5129953,21.2648169 12.8827777,27.3318532 C18.2525602,33.3988895 21.9583009,36.2810816 24,35.9784295" id="Path-68" stroke="#FFFFFF"></path>
                        <path d="M12.2812128,5 C11.7483815,10.6842143 11.9727415,14.4722262 12.9542928,16.3640357 C14.4266198,19.20175 19.516966,23.0765438 21.2430538,26.7359069 C22.9691417,30.39527 24.8861924,33.9715269 26,35" id="Path-69" stroke="#FFFFFF"></path>
                        <path d="M13,5 C14.0434933,7.25834637 15.1200173,8.92620362 16.229572,10.0035717 C17.893904,11.6196239 19.8376135,11.3709596 21,14" id="Path-70" stroke="#FFFFFF"></path>
                        <path d="M23,23 C23.4215294,23.6577529 25.4097325,26.4574685 25.4941015,27.9964452 C25.5784706,29.5354219 25.1322941,32.0935027 26,35" id="Path-71" stroke="#FFFFFF"></path>
                    </g>
                </g>
            </g>
        </g>
    </g>
</svg>