<?xml version="1.0" encoding="UTF-8" standalone="no"?>
<svg width="62px" height="76px" viewBox="0 0 62 76" version="1.1" xmlns="http://www.w3.org/2000/svg" xmlns:xlink="http://www.w3.org/1999/xlink">
    <!-- Generator: Sketch 47 (45396) - http://www.bohemiancoding.com/sketch -->
    <title>Group 6</title>
    <desc>Created with Sketch.</desc>
    <defs></defs>
    <g id="Page-1" stroke="none" stroke-width="1" fill="none" fill-rule="evenodd" opacity="0.358267257">
        <g id="Desktop-Copy-5" transform="translate(-489.000000, -1767.000000)">
            <g id="Group-6" transform="translate(490.000000, 1768.000000)">
                <path d="M53.8681388,7.28633349 C58.2780478,18.9860646 58.6198281,28.9695711 54.8934796,37.2368529 C49.3039568,49.6377757 36.8860092,59.1449047 32.8972735,61.8684032 C28.9085379,64.5919016 18.1953885,70.6392198 11.3177276,72.4236442 C4.44006665,74.2080687 0.43717566,75.4252507 0.163915574,70.6392198 C-0.109344512,65.8531889 -0.0558003056,52.2816397 0.43717566,47.8410998 C0.930151626,43.4005599 5.69189326,17.8722032 12.3627628,14.405654 C19.0336323,10.9391048 29.1590263,0.0506241768 44.1224778,1.57593032 C48.2591749,2.36499878 48.3500382,3.32524202 50.885879,2.67120638 C53.4217198,2.01717074 58.3816301,1.35609404 58.9967652,0.228899606 C59.6119003,-0.898294832 60.529494,2.46920637 59.6119003,3.13544651 C58.6943067,3.80168664 56.3914922,2.78433264 54.8934796,4.93764328 C53.8948045,6.3731837 53.5530242,7.15608044 53.8681388,7.28633349 Z" id="Path-26" stroke="#292F48" fill="#292F48"></path>
                <path d="M53.114672,7.29109665 C54.9436819,18.6698207 53.9387614,27.6465403 50.0999104,34.2212553 C44.3416339,44.083328 34.665529,53.4711043 31.4802848,54.543617 C28.2950407,55.6161298 23.6816656,63.4126832 20.641849,65.4485931 C17.6020324,67.484503 6.98201024,73.1903146 5.59527434,72.9951129 C4.20853845,72.7999112 3.91822807,71.8430939 4.20853845,68.1479695 C4.49884883,64.4528451 3.40242332,49.0927739 4.49884883,43.8557754 C5.59527434,38.6187769 10.4085442,22.0644661 13.5393211,18.8151253 C16.670098,15.5657846 29.1229428,3.77143446 42.9777743,4.00337356 C52.2143286,4.15799963 55.5932945,5.25390733 53.114672,7.29109665 Z M48.0307567,10.9425882 C49.993571,9.25770191 47.3177772,8.35131593 40.0033751,8.22343025 C29.0317721,8.03160173 19.1703985,17.786286 16.6911449,20.4736993 C14.2118913,23.1611125 10.4002761,36.8525897 9.53201973,41.1839235 C8.66376338,45.5152573 9.53201973,58.2190216 9.30212374,61.2751266 C9.07222774,64.3312315 9.30212374,65.1225808 10.4002761,65.2840252 C11.4984284,65.4454695 19.9083949,60.7263972 22.3156173,59.0425691 C24.7228397,57.358741 28.3761588,50.9104911 30.8985448,50.0234542 C33.4209309,49.1364174 41.0834119,41.372124 45.6433752,33.2155572 C48.6833508,27.777846 49.4791446,20.353523 48.0307567,10.9425882 Z" id="Combined-Shape" fill="#FFFFFF"></path>
                <g id="Group-5" transform="translate(9.000000, 9.000000)" fill="#FFFFFF">
                    <path d="M37.1991809,1.44954965 C37.5166408,0.868113309 38.0458004,0.577395138 38.7866597,0.577395138 C39.8979486,0.577395138 40.0432421,3.46279192 39.8979486,3.76981967 C39.7526552,4.07684742 38.4023755,5.44038613 37.8486122,4.6051029 C37.4794366,4.04824741 37.2629595,2.99639633 37.1991809,1.44954965 Z" id="Path-28"></path>
                    <path d="M26.9112934,7.01676478 C27.7632278,5.70198006 28.5590275,5.01866712 29.2986924,4.96682597 C30.4081898,4.88906425 30.9856014,5.39198164 31.7783555,7.23187643 C32.5711095,9.07177122 33.3778376,9.05604413 33.3319743,9.81199292 C33.286111,10.5679417 32.2206854,12.6851575 31.1411066,12.7298924 C30.0615279,12.7746272 28.183283,12.964925 27.4027113,11.0186102 C26.8823303,9.72106704 26.7185243,8.38711856 26.9112934,7.01676478 Z" id="Path-30"></path>
                    <path d="M14.2096713,22.1282266 C15.1616928,22.1282266 17.7228707,22.8586626 18.039614,23.5833319 C18.3563573,24.3080013 19.0152838,26.5669357 17.7228707,27.3421065 C16.4304576,28.1172773 15.5943484,27.9502206 14.2096713,27.781067 C12.8249942,27.6119134 11.9664909,26.4332554 11.9664909,25.4768736 C11.9664909,24.5204918 12.5800915,23.1854366 12.8988055,22.9523261 C13.2175195,22.7192157 13.2576499,22.1282266 14.2096713,22.1282266 Z" id="Path-33"></path>
                    <path d="M7.33591136,34.0137128 C7.69589038,33.2054569 8.31600023,32.8531701 9.1962409,32.9568524 C10.5166019,33.1123758 11.8776307,34.2034864 11.8776307,34.5980616 C11.8776307,34.9926368 12.0750579,36.0961543 11.2244372,37.0675642 C10.3738166,38.0389741 8.57135363,37.6468454 7.60535817,36.7802827 C6.96136119,36.2025743 6.87154559,35.2803843 7.33591136,34.0137128 Z" id="Path-35"></path>
                    <path d="M6.28732616,46.1218247 C7.02030268,44.7893324 7.34492875,43.8523474 7.26120437,43.3108695 C7.13561779,42.4986526 4.73746957,42.1804412 4.50027039,42.4986526 C4.2630712,42.8168641 3.55021958,44.4348322 3.73940564,45.2783284 C3.86552967,45.8406593 4.71483651,46.1218247 6.28732616,46.1218247 Z" id="Path-37"></path>
                    <path d="M3.47819989,51.3315106 C3.63059977,50.436348 3.51098498,49.9577202 3.11935551,49.8956273 C2.53191131,49.802488 1.63972708,50.6707981 1.63972708,51.3315106 C1.63972708,51.9922232 2.14350661,52.3282587 2.81085325,52.2351193 C3.25575101,52.1730265 3.47819989,51.8718236 3.47819989,51.3315106 Z" id="Path-39"></path>
                    <path d="M37.9844105,7.92526635 C38.1199699,7.07693547 38.4313984,6.65277002 38.9186958,6.65277002 C39.6496419,6.65277002 39.7094792,8.26899064 39.6496419,8.66933246 C39.5898047,9.06967427 38.5107634,9.08889627 38.2475869,8.66933246 C38.072136,8.38962325 37.9844105,8.14160121 37.9844105,7.92526635 Z" id="Path-41"></path>
                    <path d="M33.0890422,14.0908099 C34.2664387,13.0741409 35.318607,12.6072793 36.245547,12.6902251 C37.635957,12.8146439 38.341105,14.1566889 37.9127491,15.4041967 C37.4843932,16.6517044 36.5167853,17.3510357 35.8433475,17.3510357 C35.1699096,17.3510357 33.068977,16.1835613 32.7559959,15.9076383 C32.5473418,15.7236896 32.6583573,15.1180801 33.0890422,14.0908099 Z" id="Path-43"></path>
                    <path d="M18.7521588,31.2282513 C19.0994261,30.7673112 20.7521884,28.5395935 21.806349,28.4441114 C22.8605096,28.3486292 25.2888111,29.400365 25.8302691,30.9661528 C26.3717271,32.5319405 26.679471,33.6182886 24.8169778,34.7900932 C22.9544847,35.9618978 20.8177752,36.232709 19.5716264,34.9972894 C18.3254776,33.7618699 17.9011214,32.6059388 18.1826795,32.1216655 C18.4642377,31.6373922 18.4048915,31.6891913 18.7521588,31.2282513 Z" id="Path-46"></path>
                    <path d="M14.4288155,44.6973202 C14.4350308,44.6160739 14.4393974,44.5555807 14.4419152,44.5158408 C14.5238541,43.2225384 14.3281111,42.344999 13.8546864,41.8832228 C13.1118183,41.1586327 11.7127153,40.6573216 10.3903341,41.8832228 C9.06795296,43.1091239 9.23412245,43.618372 9.31989918,44.1578461 C9.40567592,44.6973202 10.3230138,45.5563014 11.0923329,45.7686298 C11.861652,45.9809582 12.2260297,46.0563891 13.3274226,45.5563014" id="Path-48"></path>
                    <path d="M34.2790979,0.0730467038 C34.6317744,-0.145610733 35.0837437,0.186240579 35.0837437,0.29170414 C35.0837437,0.397167702 34.80081,0.750774325 34.5399539,0.7212887 C34.2790979,0.691803076 33.9264215,0.29170414 34.2790979,0.0730467038 Z" id="Path-52"></path>
                    <path d="M29.0217847,0.671925128 C30.0380363,0.305287406 30.6867043,0.213627975 30.9677888,0.396946836 C31.3894155,0.671925128 31.8110421,1.13971952 31.3894155,1.93042015 C30.9677888,2.72112078 29.6687167,2.8451371 29.3452507,2.72112078 C29.0217847,2.59710447 29.0217847,1.80397431 29.0217847,1.36798463 C29.0217847,1.07732485 29.0217847,0.845305014 29.0217847,0.671925128 Z" id="Path-54"></path>
                    <path d="M22.9282378,2.66700859 C23.6967667,3.59420447 24.107864,4.14824707 24.1615297,4.32913641 C24.2420283,4.60047041 24.8868091,5.43534426 23.5448837,7.07925062 C22.2029584,8.72315699 21.3901609,7.40955587 20.8565609,6.83132843 C20.3229608,6.25310098 19.3059167,4.54922947 20.0812388,3.54992081 C20.8565609,2.55061215 21.6798047,2.43421572 22.0933211,2.55061215 C22.3689987,2.62820978 22.6473043,2.66700859 22.9282378,2.66700859 Z" id="Path-56"></path>
                    <path d="M19.2210026,5.80463237 C19.5193341,6.23940729 20.5844962,7.82390067 20.5844962,8.38755095 C20.5844962,8.95120123 20.8678827,10.4095801 19.357318,10.6821288 C17.8467533,10.9546776 16.647427,10.329737 15.9059573,8.38755095 C15.1644876,6.44536492 16.3215834,5.60828241 16.647427,5.3663236 C16.9732705,5.12436479 18.2280741,4.88240598 18.5441809,5.12436479 C18.8602876,5.3663236 18.9226712,5.36985746 19.2210026,5.80463237 Z" id="Path-57"></path>
                    <path d="M8.2590489,13.8406245 C8.97262902,13.0795935 9.75595189,12.6736784 10.6090175,12.6228792 C11.4620831,12.57208 12.4961856,13.5263688 13.7113248,15.4857456 C14.3757302,16.3723021 14.0874753,17.3221736 12.8465599,18.33536 C11.6056445,19.3485464 9.96570852,18.8419532 7.92675184,16.8155804 C7.3636772,16.2680533 7.25249637,15.5666562 7.59320937,14.7113891 C7.93392236,13.8561219 8.15586887,13.565867 8.2590489,13.8406245 Z" id="Path-59"></path>
                    <path d="M8.80985818,26.8452203 C9.60963551,25.2788379 9.44894035,24.284057 8.32777269,23.8608776 C6.64602121,23.2261084 4.75889089,22.3702523 3.85880173,23.0332923 C2.95871258,23.6963323 2.46779603,25.723331 2.95871258,26.0878705 C3.44962913,26.4524099 4.96257144,28.1648952 7.19649083,27.6737995 C8.68577042,27.3464023 9.22355953,27.0702092 8.80985818,26.8452203 Z" id="Path-61"></path>
                    <path d="M2.39839293,32.7081109 C2.93969183,32.7081109 5.34977961,32.7826532 5.49832262,33.1216826 C5.64686564,33.4607121 6.6284723,34.9327846 4.82738824,36.1198295 C3.02630418,37.3068743 1.17687571,36.0459498 1.06727995,35.7611429 C0.957684186,35.4763361 0.553946082,34.1048681 1.17687571,33.4064895 C1.79980533,32.7081109 1.85709403,32.7081109 2.39839293,32.7081109 Z" id="Path-63"></path>
                    <path d="M1.92031249,44.8177057 C2.93407188,44.0299637 3.42335041,43.3889882 3.38814806,42.8947791 C3.33534455,42.1534656 2.43949792,41.1441441 1.571869,41.3188943 C0.704240076,41.4936446 0.311822068,42.3209486 0.311822068,43.0583151 C0.311822068,43.7956817 0.677773492,44.8177057 0.885264726,44.8177057 C1.02359222,44.8177057 1.36860814,44.8177057 1.92031249,44.8177057 Z" id="Path-65"></path>
                    <path d="M0.140307541,49.7034139 C0.234761497,49.2445215 0.397442044,49.0150753 0.628349182,49.0150753 C0.974709889,49.0150753 1.3746772,49.2311831 1.3746772,49.6500892 C1.3746772,50.0689952 1.24416062,51.1070128 1.05994883,51.3136138 C0.875737029,51.5202147 0.233343802,51.5755273 0.140307541,51.5202147 C0.0472712809,51.4649022 2.22044605e-15,50.3653494 2.22044605e-15,50.0780699 C2.22044605e-15,49.8865503 0.0467691805,49.7616649 0.140307541,49.7034139 Z" id="Path-67"></path>
                    <path d="M32.8989604,2.94606964 C33.179873,2.68762113 34.3984748,2.0038422 35.0801537,2.04857704 C35.7618327,2.09331187 37.0904347,5.04581091 37.1382687,5.67926315 C37.1861027,6.31271539 37.5372435,7.58084308 36.0110351,8.44356134 C34.4848268,9.3062796 33.4299712,7.85781461 33.1644658,7.58084308 C32.8989604,7.30387155 32.1366624,6.17061343 32.1366624,5.38051885 C32.1366624,4.59042428 32.1366624,3.9029757 32.1366624,3.66182699 C32.1366624,3.42067827 32.6180477,3.20451816 32.8989604,2.94606964 Z" id="Path-29"></path>
                    <path d="M22.6177016,10.2589918 C23.4606783,9.92889762 24.208226,9.81886624 24.8603446,9.92889762 C25.8385225,10.0939447 28.2703516,13.060336 28.2703516,13.6179487 C28.2703516,14.1755614 27.7963115,15.7968497 26.8064886,16.7942967 C25.8166658,17.7917437 24.6399858,18.1129258 23.4007813,17.4536112 C22.1615768,16.7942967 21.2692135,15.1476703 21.1418353,14.2344506 C21.0144572,13.3212309 21.2235293,11.7946547 21.490468,11.3067655 C21.6684271,10.9815059 22.0441716,10.632248 22.6177016,10.2589918 Z" id="Path-31"></path>
                    <path d="M16.0533396,17.9208805 C16.685393,16.694284 17.4953458,16.0188346 18.483198,15.8945324 C19.9649763,15.708079 20.8824211,16.1910754 22.4403396,18.5772244 C23.9982581,20.9633735 21.2597183,22.3905195 20.8824211,22.6374349 C20.505124,22.8843502 18.2090932,23.7855124 16.8147418,21.6621805 C15.8851742,20.2466259 15.6313735,18.9995259 16.0533396,17.9208805 Z" id="Path-32"></path>
                    <path d="M10.6584914,28.2088439 C10.7915823,28.0925111 10.8960231,28.0130819 10.9718137,27.9705562 C11.4496329,27.7024549 12.0907691,27.7106463 12.8952224,27.9951302 C14.389004,28.5233857 15.4628498,29.2185231 15.4628498,29.6597553 C15.4628498,30.1009876 14.8433371,32.6091089 13.0606706,32.931689 C11.2780041,33.2542691 9.94169845,32.86581 9.46747924,31.9564347 C8.99326003,31.0470594 9.22490545,29.7513219 9.94169845,28.8732261" id="Path-34"></path>
                    <path d="M8.83220106,41.4753433 C9.68228424,40.2139142 9.96564529,39.3351776 9.68228424,38.8391335 C9.25724265,38.0950674 7.0532072,37.3510013 6.48152851,38.0950674 C5.90984981,38.8391335 5.41771526,40.6865424 6.11498053,41.4753433 C6.57982404,42.0012106 7.48556422,42.0012106 8.83220106,41.4753433 Z" id="Path-36"></path>
                    <path d="M2.88663516,48.2004218 C2.7553754,47.6372754 2.83844288,47.1963344 3.13583763,46.8775987 C3.58192975,46.3994952 4.88204641,46.3357131 4.88204641,46.8775987 C4.88204641,47.4194844 5.07517384,48.0621981 4.88204641,48.404175 C4.68891898,48.7461518 4.27417872,49.4802574 3.70500817,49.4802574 C3.32556114,49.4802574 3.05277014,49.0536455 2.88663516,48.2004218 Z" id="Path-38"></path>
                    <path d="M39.9968279,6.69593403 C39.971627,6.18567733 40.0898683,5.85412697 40.3515517,5.70128296 C40.6132352,5.54843894 40.744077,5.8799893 40.744077,6.69593403 L39.9968279,6.69593403 Z" id="Path-40"></path>
                    <path d="M36.1677944,10.2235184 C36.6376542,9.29608612 37.0293434,8.83236996 37.342862,8.83236996 C37.8131398,8.83236996 39.0021813,9.48556843 38.956318,10.2235184 C38.9104547,10.9614685 38.5179295,11.5421476 37.342862,12.0064462 C36.1677944,12.4707449 35.9789667,11.4271651 35.9789667,10.8253418 C35.9789667,10.4241262 36.0419092,10.2235184 36.1677944,10.2235184 Z" id="Path-42"></path>
                    <path d="M29.7370809,17.5591575 C31.7745335,17.0071949 33.1493572,16.8692042 33.8615519,17.1451855 C34.929844,17.5591575 37.5066082,18.7891907 35.1206424,21.625484 C32.7346766,24.4617773 30.0172769,22.1811745 29.5394747,21.9033292 C29.0616724,21.625484 28.3862638,19.5318588 29.0616724,18.3385222 C29.5119448,17.5429644 29.7370809,17.2831762 29.7370809,17.5591575 Z" id="Path-44"></path>
                    <path d="M28.7657109,22.0843655 C31.3985501,23.8145784 32.7302575,24.8733611 32.760833,25.2607135 C32.8066963,25.8417421 32.0728838,29.2435117 29.4638719,29.7177708 C26.8548601,30.1920299 24.1503594,27.5104592 23.9113687,26.7200127 C23.672378,25.9295661 23.901157,23.6665108 25.1998404,22.8754382 C26.0656293,22.3480564 27.2542528,22.0843655 28.7657109,22.0843655 Z" id="Path-45"></path>
                    <path d="M14.4765372,36.0257514 C15.6562834,35.0368747 16.743115,34.6344175 17.7370321,34.8183798 C19.2279076,35.0943232 20.5419681,36.9994306 20.3800813,38.0543889 C20.2181945,39.1093472 20.3173089,40.1617991 18.4592208,40.9565686 C16.6011327,41.7513381 15.5303307,42.0910158 14.1701392,40.2878355 C12.8099478,38.4846553 13.8637413,37.1023126 14.1701392,36.6909039 C14.3744045,36.4166315 14.4765372,36.194914 14.4765372,36.0257514 Z" id="Path-47"></path>
                    <path d="M7.03647596,46.8176205 C7.69299633,45.9764228 8.40078697,45.5978361 9.15984787,45.6818604 C10.2984392,45.8078968 10.7256098,46.9170413 10.7581585,47.6734985 C10.7907071,48.4299558 10.0032987,49.070641 9.03185576,49.6598851 C8.06041281,50.2491293 6.39676015,49.6317503 6.42943118,48.6888317 C6.45121186,48.0602194 6.65356012,47.4364823 7.03647596,46.8176205 Z" id="Path-49"></path>
                    <path d="M4.83711638,50.637861 C5.00663046,49.9593808 5.32583576,49.6307631 5.79473227,49.6520078 C6.49807704,49.683875 6.72958857,50.0634165 6.49807704,50.9099851 C6.26656551,51.7565536 5.77686722,52.3921066 5.42996701,52.1704687 C5.08306679,51.9488308 4.83711638,51.430124 4.83711638,51.1062009 C4.83711638,50.8902521 4.83711638,50.7341388 4.83711638,50.637861 Z" id="Path-50"></path>
                    <path d="M3.40815671,52.9450445 C3.63660916,52.6279244 4.04799488,52.4195577 4.46978148,52.450112 C4.89156809,52.4806663 4.41178124,52.8056636 4.04799488,53.2451202 C3.68420852,53.6845767 3.17970426,53.2621646 3.40815671,52.9450445 Z" id="Path-51"></path>
                    <path d="M32.1555668,0.145380351 C32.6790904,0.145380351 33.6734908,0.23372679 33.6734908,0.643875133 C33.6734908,1.05402348 33.6734908,1.52656649 32.9145288,1.52656649 C32.1555668,1.52656649 32.0193647,1.02807171 31.9892485,0.835973422 C31.9591323,0.643875133 31.6320433,0.145380351 32.1555668,0.145380351 Z" id="Path-53"></path>
                    <path d="M24.7861576,2.21080966 C25.585784,1.39257439 26.1488209,0.9932853 26.4752683,1.01294238 C26.9649395,1.04242801 28.0522925,1.64141686 28.1429807,2.48368973 C28.2336689,3.32596259 28.5834017,3.71380346 28.0522925,4.16072601 C27.5211833,4.60764856 27.0052454,5.15771557 26.4752683,5.12822995 C25.9452913,5.09874432 25.1687238,4.72051113 24.9283604,4.16072601 C24.7681181,3.78753592 24.7207172,3.13756381 24.7861576,2.21080966 Z" id="Path-55"></path>
                    <path d="M11.9448857,12.5590489 C11.1242761,11.2292142 11.0257003,10.1624309 11.6491583,9.35869918 C12.5843453,8.15310159 14.1626148,8.03758862 15.0450418,8.57539757 C15.9274688,9.11320652 16.9443998,10.8873134 16.9746292,11.7231812 C17.0048586,12.5590489 17.1018871,13.012487 16.3704939,13.7674074 C15.6391007,14.5223277 14.8349078,14.9533479 13.719703,14.0116853 C12.9762331,13.3839102 12.3846274,12.8996981 11.9448857,12.5590489 Z" id="Path-58"></path>
                    <path d="M5.27754604,19.3766332 C5.70875856,18.4126263 6.22439454,17.8422396 6.82445398,17.6654731 C7.72454313,17.4003234 10.8832334,19.3683507 11.1148789,19.6802137 C11.3465245,19.9920766 11.877747,21.2369883 10.5913554,22.7985117 C9.73376101,23.8395272 8.303091,23.6185139 6.29934536,22.1354716 C5.52817463,21.6473612 5.12247407,21.1161239 5.08224367,20.5417598 C5.04201327,19.9673957 5.10711406,19.5790202 5.27754604,19.3766332 Z" id="Path-60"></path>
                    <path d="M3.81645792,27.7993618 C5.53398653,28.3361401 6.5866191,28.8394571 6.97435562,29.3093129 C7.55596039,30.0140966 7.2373628,31.6281861 6.58782676,32.2606362 C5.93829073,32.8930862 2.50006338,32.106582 2.09847643,31.6281861 C1.69688948,31.1497901 1.29530253,29.3206875 1.69688948,28.8504636 C1.96461411,28.536981 2.67113692,28.1866137 3.81645792,27.7993618 Z" id="Path-62"></path>
                    <path d="M0.994593502,37.1897049 C2.10889255,36.9057447 2.9676946,36.9057447 3.57099964,37.1897049 C4.4759572,37.6156451 4.91107913,39.5297812 3.72022197,40.4321296 C2.52936481,41.334478 1.24967537,40.8755183 0.994593502,40.4321296 C0.739511632,39.9887409 0.407214567,38.9747447 0.496657389,38.3018761 C0.556285936,37.853297 0.722264641,37.4825733 0.994593502,37.1897049 Z" id="Path-64"></path>
                    <path d="M0.970263179,45.2378679 C1.56496959,44.9654825 1.96547461,44.9654825 2.17177824,45.2378679 C2.48123369,45.646446 2.75438241,47.3515851 1.86232279,48.0085534 C0.970263179,48.6655218 0.408696553,48.3504418 0.199339085,47.3515851 C-0.010018382,46.3527284 -0.152870074,45.2378679 0.408696553,45.2378679 C0.783074304,45.2378679 0.970263179,45.2378679 0.970263179,45.2378679 Z" id="Path-66"></path>
                </g>
            </g>
        </g>
    </g>
</svg>