<?xml version="1.0" encoding="UTF-8" standalone="no"?>
<svg width="52px" height="83px" viewBox="0 0 52 83" version="1.1" xmlns="http://www.w3.org/2000/svg" xmlns:xlink="http://www.w3.org/1999/xlink">
    <!-- Generator: Sketch 47 (45396) - http://www.bohemiancoding.com/sketch -->
    <title>Group 7</title>
    <desc>Created with Sketch.</desc>
    <defs></defs>
    <g id="Page-1" stroke="none" stroke-width="1" fill="none" fill-rule="evenodd" opacity="0.483150653">
        <g id="Desktop-Copy-5" transform="translate(-43.000000, -1703.000000)">
            <g id="Group-7" transform="translate(32.000000, 1704.000000)">
                <path d="M59.0725342,12.0894056 C63.3354462,23.4729277 63.6658338,33.1866097 60.0636969,41.2304515 C54.6604916,53.2962142 42.6564755,62.5463938 38.8006978,65.1962842 C34.94492,67.8461746 24.5888756,73.7300517 17.94047,75.4662484 C11.2920644,77.2024452 7.42260314,78.3867304 7.15845172,73.7300517 C6.89430031,69.073373 6.9460597,55.8686224 7.42260314,51.5480971 C7.89914657,47.2275718 12.5021635,22.3891707 18.9506707,19.016312 C25.3991779,15.6434533 35.1870588,5.04925596 49.6517286,6.53333761 C53.6505358,7.3010799 53.7383703,8.23537061 56.189683,7.59901161 C58.6409958,6.96265261 63.4355757,6.31944285 64.0302064,5.22271313 C64.624837,4.12598341 65.5118442,7.40247107 64.624837,8.05070471 C63.7378298,8.69893835 61.5117758,7.7090804 60.0636969,9.80419346 C59.098311,11.2009355 58.7679234,11.9626729 59.0725342,12.0894056 Z" id="Path-26" stroke="#B3B5BE" fill="#B3B5BE" transform="translate(36.000000, 41.000000) scale(1, -1) rotate(-191.000000) translate(-36.000000, -41.000000) "></path>
                <path d="M29,10 C40.2372205,10.2718589 47.5648918,14.0476772 50.9830137,21.3274548 C56.1101965,32.2471213 55.8574073,37.9132086 57.9496723,40.4684936 C60.0419373,43.0237787 61.2581236,64.6365625 57.9496723,73" id="Path-72" stroke="#FFFFFF"></path>
                <path d="M22.5073259,10 C14.8767604,29.064452 16.9346772,45.1529914 28.6810763,58.2656183 C40.4274754,71.3782451 48.5337833,77.607499 53,76.9533798" id="Path-68" stroke="#FFFFFF"></path>
                <path d="M24.5825122,11 C23.4787903,23.3157977 23.943536,31.5231568 25.9767494,35.6220774 C29.0265695,41.7704583 39.5708582,50.1658449 43.1463258,58.094465 C46.7217934,66.0230851 50.6928271,73.7716417 53,76" id="Path-69" stroke="#FFFFFF"></path>
                <path d="M28,10 C30.3478599,15.0185475 32.7700389,18.7248969 35.266537,21.1190483 C39.011284,24.7102754 43.3846304,24.1576881 46,30" id="Path-70" stroke="#FFFFFF"></path>
                <path d="M49,47 C49.8430588,48.3703186 53.8194649,54.2030594 53.9882031,57.4092608 C54.1569412,60.6154622 53.2645882,65.9447974 55,72" id="Path-71" stroke="#FFFFFF"></path>
            </g>
        </g>
    </g>
</svg>