<?xml version="1.0" encoding="UTF-8" standalone="no"?>
<svg width="118px" height="123px" viewBox="0 0 118 123" version="1.1" xmlns="http://www.w3.org/2000/svg" xmlns:xlink="http://www.w3.org/1999/xlink">
    <!-- Generator: Sketch 47 (45396) - http://www.bohemiancoding.com/sketch -->
    <title>Fichier 1</title>
    <desc>Created with Sketch.</desc>
    <defs></defs>
    <g id="Page-1" stroke="none" stroke-width="1" fill="none" fill-rule="evenodd" opacity="0.430795243">
        <g id="Desktop-Copy" transform="translate(-12.000000, -1686.000000)">
            <g id="Fichier-1" transform="translate(12.000000, 1687.000000)">
                <path d="M69,47 C69,47 77.1007432,42.0181818 78,39" id="Shape" fill="#BDBFC6" fill-rule="nonzero"></path>
                <path d="M59,43 C59,43 63.6944444,34.9672447 62.912037,32" id="Shape" fill="#BDBFC6" fill-rule="nonzero"></path>
                <path d="M44,52 C44,52 39.0181818,43.8992568 36,43" id="Shape" fill="#BDBFC6" fill-rule="nonzero"></path>
                <path d="M44,69 C44,69 35.15875,69.2824207 33,71" id="Shape" fill="#BDBFC6" fill-rule="nonzero"></path>
                <path d="M59,78 C59,78 54.3055556,86.0346598 55.087963,89" id="Shape" fill="#BDBFC6" fill-rule="nonzero"></path>
                <path d="M74,70 C74,70 78.9818182,78.0933113 82,79" id="Shape" fill="#BDBFC6" fill-rule="nonzero"></path>
                <path d="M74,52 C74,52 82.834375,51.7225434 85,50" id="Shape" fill="#BDBFC6" fill-rule="nonzero"></path>
                <path d="M52,44 C52,44 51.7175793,35.165625 50,33" id="Shape" fill="#BDBFC6" fill-rule="nonzero"></path>
                <path d="M41,59 C41,59 23.4708949,49.585067 17,51.1824956" id="Shape" fill="#BDBFC6" fill-rule="nonzero"></path>
                <path d="M48,75 C48,75 30.9113264,85.5935961 29,92" id="Shape" fill="#BDBFC6" fill-rule="nonzero"></path>
                <path d="M66,77 C66,77 66.6966146,97.1100762 71,102" id="Shape" fill="#BDBFC6" fill-rule="nonzero"></path>
                <path d="M76,63 C76,63 93.5341831,72.414933 100,70.8175044" id="Shape" fill="#BDBFC6" fill-rule="nonzero"></path>
                <path d="M69,46 C69,46 86.0957526,35.4107509 88,29" id="Shape" fill="#BDBFC6" fill-rule="nonzero"></path>
                <path d="M52,44 C52,44 51.2977893,23.8899238 47,19" id="Shape" fill="#BDBFC6" fill-rule="nonzero"></path>
                <path d="M49,75 C49,75 40.9,79.9745455 40,83" id="Shape" fill="#BDBFC6" fill-rule="nonzero"></path>
                <path d="M66,77 C66,77 66.2766571,85.84125 68,88" id="Shape" fill="#BDBFC6" fill-rule="nonzero"></path>
                <path d="M76,63 C76,63 84.0398202,67.6944444 87,66.912037" id="Shape" fill="#BDBFC6" fill-rule="nonzero"></path>
                <path d="M65.1931394,45 C65.1931394,45 74.3020253,29.7811685 85.9964334,22.9744042 C85.9964334,22.9744042 86.8302468,-13.0502733 63,14.176784 C63,14.176784 65.0600096,21.4532221 65.1931394,45 Z" id="Shape" fill="#BDBFC6" fill-rule="nonzero"></path>
                <path d="M50,48 C50,48 41.230761,32.0933357 41.1664913,18.2414617 C41.1664913,18.2414617 9.81003484,-0.962925705 21.6856411,34.1481261 C21.6856411,34.1481261 29.1623457,36.0520403 50,48 Z" id="Shape" fill="#BDBFC6" fill-rule="nonzero"></path>
                <path d="M43,62.2066878 C43,62.2066878 25.0213648,61.8895935 13.1350159,55 C13.1350159,55 -18.8885405,72.7716921 17.0687299,80 C17.0403277,79.9927933 22.4083562,74.414817 43,62.2066878 Z" id="Shape" fill="#BDBFC6" fill-rule="nonzero"></path>
                <path d="M51.7928469,76 C51.7928469,76 42.683961,91.5767062 31.0035666,98.5794078 C31.0035666,98.5794078 30.1697532,135.451215 54,107.583906 C54,107.548032 51.9399904,100.093312 51.7928469,76 Z" id="Shape" fill="#BDBFC6" fill-rule="nonzero"></path>
                <path d="M68,74 C68,74 76.7763801,89.9071299 76.8335087,103.759409 C76.8335087,103.759409 108.189965,122.964359 96.3143589,87.8450945 C96.3143589,87.8450945 88.8519364,85.9483094 68,74 Z" id="Shape" fill="#BDBFC6" fill-rule="nonzero"></path>
                <path d="M75,59.795389 C75,59.795389 92.9786352,60.1051873 104.864984,67 C104.864984,67 136.88854,49.2334294 100.93127,42 C100.93127,42 95.5845432,47.5763689 75,59.795389 Z" id="Shape" fill="#BDBFC6" fill-rule="nonzero"></path>
                <path d="M77,60.9997369 C77,68.2799509 72.6145049,74.8433082 65.8884642,77.6293255 C59.1624235,80.4153428 51.4204157,78.8753617 46.272527,73.727473 C41.1246383,68.5795843 39.5846572,60.8375765 42.3706745,54.1115358 C45.1566918,47.3854951 51.7200491,43 59.0002631,43 C68.9412433,43 77,51.0587567 77,60.9997369 L77,60.9997369 Z" id="Shape" fill="#BDBFC6" fill-rule="nonzero"></path>
                <path d="M48.797185,46 C48.797185,46 55.0822427,41.1099862 66.3725954,44.1300813 C66.3725954,44.1300813 72.1244187,0 48.797185,0 C48.797185,0 29.0035188,7.64196963 48.797185,46 Z" id="Shape" stroke="#282E47" stroke-width="2"></path>
                <path d="M40.89918,63 C40.89918,63 39.7839419,55.0005885 48,46.6486849 C48,46.6486849 12.6300108,19.1111423 1.05412136,39.5484878 C1.05412136,39.5484878 -2.15748213,60.7915294 40.89918,63 Z" id="Shape" stroke="#282E47" stroke-width="2"></path>
                <path d="M52,77.3440519 C52,77.3440519 44.6409816,74.3509454 41.6407664,63 C41.6407664,63 0.451491207,80.3300148 12.0631731,100.624562 C12.0631731,100.624562 28.5502048,113.982818 52,77.3440519 Z" id="Shape" stroke="#282E47" stroke-width="2"></path>
                <path d="M69.1925715,75 C69.1925715,75 62.916331,79.882957 51.6290491,76.8699185 C51.6290491,76.8699185 45.8716823,120.999995 69.1925715,120.999995 C69.1925715,121.007051 89.0092856,113.365083 69.1925715,75 Z" id="Shape" stroke="#282E47" stroke-width="2"></path>
                <path d="M76.0997561,59 C76.0997561,59 77.2148271,66.9929373 69,75.3527872 C69,75.3527872 104.36469,102.892809 115.945902,82.4464292 C115.945902,82.4464292 119.157024,61.2086695 76.0997561,59 Z" id="Shape" stroke="#282E47" stroke-width="2"></path>
                <path d="M66,44.6567385 C66,44.6567385 73.3710402,47.64968 76.3703886,59 C76.3703886,59 117.54069,41.67094 105.939437,21.3775108 C105.939437,21.3775108 89.4571682,8.0128483 66,44.6567385 Z" id="Shape" stroke="#282E47" stroke-width="2"></path>
            </g>
        </g>
    </g>
</svg>