<?xml version="1.0" encoding="UTF-8" standalone="no"?>
<svg width="69px" height="45px" viewBox="0 0 69 45" version="1.1" xmlns="http://www.w3.org/2000/svg" xmlns:xlink="http://www.w3.org/1999/xlink">
    <!-- Generator: Sketch 47 (45396) - http://www.bohemiancoding.com/sketch -->
    <title>Group 6</title>
    <desc>Created with Sketch.</desc>
    <defs></defs>
    <g id="Page-1" stroke="none" stroke-width="1" fill="none" fill-rule="evenodd" opacity="0.529909049">
        <g id="Desktop-Copy" transform="translate(-647.000000, -1579.000000)" stroke="#A7A9B3">
            <g id="Group-6" transform="translate(642.000000, 1564.000000)">
                <g id="Group-5" transform="translate(47.701425, 31.107284) rotate(140.000000) translate(-47.701425, -31.107284) translate(33.201425, 3.607284)">
                    <path d="M5.05512321,0 C28.3033613,12.9274221 34.1154208,30.9759424 22.4913018,54.1455608 C8.18174664,41.7464743 7.78186449,44.9868803 2.5307175,30.2773939 C-2.72042949,15.5679076 1.55196404,5.52217191 3.30354362,2.08013541 C3.82441571,1.09330522 4.40827557,0.399926755 5.05512321,0 Z" id="Path-9" fill="#BFC0C7"></path>
                    <path d="M10.4599379,13.5363902 C8.30218277,13.0626318 6.30034291,12.021529 5.53761417,11.6905188" id="Path-14"></path>
                    <path d="M22.7657471,52.2996894 C15.8358755,31.8044479 12.2222891,20.7015813 11.9249881,18.9910896 C10.0450539,13.1725748 8.73631654,9.09827668 7.99877602,6.76819509" id="Path-10"></path>
                    <path d="M19.6892948,45.5314943 C20.3520601,42.6287059 22.7657471,32.2813441 22.7657471,30.1492327" id="Path-11"></path>
                    <path d="M15.3822616,32.6103945 C16.0450269,29.5914946 18.4587139,18.8302383 18.4587139,16.6128425" id="Path-11-Copy"></path>
                    <path d="M9.84464741,14.1516807 C10.1465362,13.7984175 11.6084206,10.445437 11.6905188,9.84464741" id="Path-19"></path>
                    <path d="M15.3822616,30.7645232 C10.2462474,27.4923451 6.55450461,23.8006024 4.30703324,19.6892948" id="Path-20"></path>
                    <path d="M19.6892948,45.5314943 C19.2253145,45.4240407 10.1520953,38.1381139 8.61406648,35.0715564" id="Path-21"></path>
                </g>
                <g id="Group-5" transform="translate(10.747877, 49.050614) rotate(213.000000) translate(-10.747877, -49.050614) translate(5.247877, 39.050614)">
                    <path d="M1.83136551,0 C10.2537164,4.68333492 12.3593041,11.2219367 8.14812867,19.6158053 C2.96407584,15.1238753 2.8192069,16.2978067 0.916826069,10.9688672 C-0.98555476,5.63992761 0.562244143,2.0005675 1.19680483,0.753589592 C1.3855059,0.396081638 1.59702613,0.144885107 1.83136551,0 Z" id="Path-9" fill="#BFC0C7"></path>
                    <path d="M3.78941693,4.90395132 C3.00770734,4.73231857 2.28248259,4.35514876 2.0061619,4.23523068" id="Path-14"></path>
                    <path d="M8.24755448,18.9470846 C5.73700678,11.5220869 4.42787996,7.49975032 4.32017402,6.88007491 C3.63911314,4.77214861 3.16498493,3.29611553 2.89778941,2.45197566" id="Path-10"></path>
                    <path d="M7.13302009,16.495109 C7.37312612,15.4434894 8.24755448,11.6948564 8.24755448,10.922437" id="Path-11"></path>
                    <path d="M5.57267195,11.8140645 C5.81277797,10.7203802 6.68720634,6.82180187 6.68720634,6.0184857" id="Path-11-Copy"></path>
                    <path d="M3.56651005,5.12685819 C3.67587806,4.99887833 4.2054882,3.78416356 4.23523068,3.56651005" id="Path-19"></path>
                    <path d="M5.57267195,11.1453439 C3.71200133,9.95990217 2.37456006,8.6224609 1.56034815,7.13302009" id="Path-20"></path>
                    <path d="M7.13302009,16.495109 C6.96492971,16.4561808 3.67789198,13.8166417 3.12069629,12.705692" id="Path-21"></path>
                </g>
            </g>
        </g>
    </g>
</svg>