<?xml version="1.0" encoding="UTF-8" standalone="no"?>
<svg width="156px" height="161px" viewBox="0 0 156 161" version="1.1" xmlns="http://www.w3.org/2000/svg" xmlns:xlink="http://www.w3.org/1999/xlink">
    <!-- Generator: Sketch 47 (45396) - http://www.bohemiancoding.com/sketch -->
    <title>Fichier 1</title>
    <desc>Created with Sketch.</desc>
    <defs></defs>
    <g id="Page-1" stroke="none" stroke-width="1" fill="none" fill-rule="evenodd" opacity="0.54920709">
        <g id="Desktop-Copy" transform="translate(-852.000000, -1612.000000)">
            <g id="Fichier-1" transform="translate(852.000000, 1613.000000)">
                <path d="M91,61 C91,61 101.800991,54.7727273 103,51" id="Shape" fill="#BDBFC6" fill-rule="nonzero"></path>
                <path d="M78,56 C78,56 85.0416667,45.7764933 83.8680556,42" id="Shape" fill="#BDBFC6" fill-rule="nonzero"></path>
                <path d="M58,69 C58,69 51.7727273,58.1990091 48,57" id="Shape" fill="#BDBFC6" fill-rule="nonzero"></path>
                <path d="M57,91 C57,91 45.7475,91.2824207 43,93" id="Shape" fill="#BDBFC6" fill-rule="nonzero"></path>
                <path d="M78,102 C78,102 70.9583333,112.225931 72.1319444,116" id="Shape" fill="#BDBFC6" fill-rule="nonzero"></path>
                <path d="M98,92 C98,92 104.227273,102.791082 108,104" id="Shape" fill="#BDBFC6" fill-rule="nonzero"></path>
                <path d="M98,68 C98,68 109.24375,67.7225434 112,66" id="Shape" fill="#BDBFC6" fill-rule="nonzero"></path>
                <path d="M68,57 C68,57 67.7175793,45.75625 66,43" id="Shape" fill="#BDBFC6" fill-rule="nonzero"></path>
                <path d="M53,77 C53,77 30.3582392,65.2313338 22,67.2281195" id="Shape" fill="#BDBFC6" fill-rule="nonzero"></path>
                <path d="M64,99 C64,99 40.6154993,112.70936 38,121" id="Shape" fill="#BDBFC6" fill-rule="nonzero"></path>
                <path d="M87,101 C87,101 87.9752604,126.740898 94,133" id="Shape" fill="#BDBFC6" fill-rule="nonzero"></path>
                <path d="M100,82 C100,82 122.64832,93.7686662 131,91.7718805" id="Shape" fill="#BDBFC6" fill-rule="nonzero"></path>
                <path d="M91,60 C91,60 114.394188,46.2962659 117,38" id="Shape" fill="#BDBFC6" fill-rule="nonzero"></path>
                <path d="M69,58 C69,58 68.0169051,32.2591025 62,26" id="Shape" fill="#BDBFC6" fill-rule="nonzero"></path>
                <path d="M64,99 C64,99 53.2,105.218182 52,109" id="Shape" fill="#BDBFC6" fill-rule="nonzero"></path>
                <path d="M87,101 C87,101 87.2766571,112.2525 89,115" id="Shape" fill="#BDBFC6" fill-rule="nonzero"></path>
                <path d="M100,82 C100,82 110.232498,89.0416667 114,87.8680556" id="Shape" fill="#BDBFC6" fill-rule="nonzero"></path>
                <path d="M86.8606167,59 C86.8606167,59 98.7417721,39.3268764 113.995348,30.5278884 C113.995348,30.5278884 115.082931,-16.0405972 84,19.1553549 C84,19.1553549 86.686969,28.5614822 86.8606167,59 Z" id="Shape" fill="#BDBFC6" fill-rule="nonzero"></path>
                <path d="M67,63 C67,63 55.4019742,42.0940983 55.3169724,23.8887783 C55.3169724,23.8887783 13.8455299,-1.35127378 29.5519769,44.79468 C29.5519769,44.79468 39.4405217,47.2969672 67,63 Z" id="Shape" fill="#BDBFC6" fill-rule="nonzero"></path>
                <path d="M57,81.2245604 C57,81.2245604 33.1678557,80.8186797 17.4115327,72 C17.4115327,72 -25.0382978,94.7477659 22.6259909,104 C22.5883413,103.990775 29.7041001,96.8509657 57,81.2245604 Z" id="Shape" fill="#BDBFC6" fill-rule="nonzero"></path>
                <path d="M68.1211046,100 C68.1211046,100 56.2399492,120.768942 41.0046521,130.105877 C41.0046521,130.105877 39.9170694,179.268286 71,142.111875 C71,142.064042 68.313031,132.124415 68.1211046,100 Z" id="Shape" fill="#BDBFC6" fill-rule="nonzero"></path>
                <path d="M90,97 C90,97 101.60747,117.906514 101.683028,136.112366 C101.683028,136.112366 143.15447,161.353157 127.448023,115.19641 C127.448023,115.19641 117.578368,112.703492 90,97 Z" id="Shape" fill="#BDBFC6" fill-rule="nonzero"></path>
                <path d="M99,78.778098 C99,78.778098 122.832144,79.1746398 138.588467,88 C138.588467,88 181.038298,65.2587896 133.374009,56 C133.374009,56 126.286488,63.1377522 99,78.778098 Z" id="Shape" fill="#BDBFC6" fill-rule="nonzero"></path>
                <path d="M103,80.9996492 C103,90.7066013 97.1526732,99.4577443 88.1846189,103.172434 C79.2165646,106.887124 68.8938876,104.833816 62.030036,97.969964 C55.1661844,91.1061124 53.1128763,80.7834354 56.827566,71.8153811 C60.5422557,62.8473268 69.2933987,57 79.0003508,57 C92.254991,57 103,67.745009 103,80.9996492 L103,80.9996492 Z" id="Shape" fill="#BDBFC6" fill-rule="nonzero"></path>
                <path d="M63.7295799,60 C63.7295799,60 72.109657,53.6217211 87.1634606,57.5609756 C87.1634606,57.5609756 94.8325582,0 63.7295799,0 C63.7295799,0 37.3380251,9.96778647 63.7295799,60 Z" id="Shape" stroke="#282E47" stroke-width="2"></path>
                <path d="M53.6329608,83 C53.6329608,83 52.1617956,72.4201331 63,61.3740671 C63,61.3740671 16.3417164,24.9534463 1.07139413,51.9834838 C1.07139413,51.9834838 -3.16518919,80.0791195 53.6329608,83 Z" id="Shape" stroke="#282E47" stroke-width="2"></path>
                <path d="M69,100.647267 C69,100.647267 59.1879754,96.756229 55.1876885,82 C55.1876885,82 0.268654943,104.529019 15.7508975,130.911931 C15.7508975,130.911931 37.7336064,148.277663 69,100.647267 Z" id="Shape" stroke="#282E47" stroke-width="2"></path>
                <path d="M92.256762,99 C92.256762,99 83.8884413,105.369074 68.8387321,101.439024 C68.8387321,101.439024 61.1622431,158.999994 92.256762,158.999994 C92.256762,159.009197 118.679047,149.041412 92.256762,99 Z" id="Shape" stroke="#282E47" stroke-width="2"></path>
                <path d="M100.365636,78 C100.365636,78 101.83658,88.5713042 91,99.6278798 C91,99.6278798 137.651293,136.05178 152.928637,109.009793 C152.928637,109.009793 157.164585,80.9211435 100.365636,78 Z" id="Shape" stroke="#282E47" stroke-width="2"></path>
                <path d="M87,59.35376 C87,59.35376 96.8280536,63.244584 100.827185,78 C100.827185,78 155.72092,55.472222 140.252582,29.090764 C140.252582,29.090764 118.276224,11.7167028 87,59.35376 Z" id="Shape" stroke="#282E47" stroke-width="2"></path>
            </g>
        </g>
    </g>
</svg>