<?xml version="1.0" encoding="UTF-8" standalone="no"?>
<svg width="66px" height="70px" viewBox="0 0 66 70" version="1.1" xmlns="http://www.w3.org/2000/svg" xmlns:xlink="http://www.w3.org/1999/xlink">
    <!-- Generator: Sketch 47 (45396) - http://www.bohemiancoding.com/sketch -->
    <title>Group 5</title>
    <desc>Created with Sketch.</desc>
    <defs></defs>
    <g id="Page-1" stroke="none" stroke-width="1" fill="none" fill-rule="evenodd" opacity="0.846665112">
        <g id="Desktop-Copy" transform="translate(-520.000000, -1961.000000)" stroke="#A7A9B3">
            <g id="Group-5" transform="translate(551.440283, 1996.597763) rotate(155.000000) translate(-551.440283, -1996.597763) translate(528.440283, 1952.597763)">
                <path d="M8.21583221,0 C46,21.0102755 55.4460419,50.3436088 36.5539581,88 C13.2973728,67.8484014 12.6474648,73.1148668 4.11304522,49.2082939 C-4.42137438,25.3017209 2.52232748,8.9749025 5.36907985,3.38073728 C6.2156265,1.77689285 7.16454396,0.649980423 8.21583221,0 Z" id="Path-9" fill="#BFC0C7"></path>
                <path d="M17,22 C13.4931114,21.2300249 10.2396239,19.5379739 9,19" id="Path-14"></path>
                <path d="M37,85 C25.7372354,51.6901362 19.864259,33.6452172 19.381071,30.8652428 C16.3257104,21.4087096 14.1986867,14.786962 13,11" id="Path-10"></path>
                <path d="M32,74 C33.0771584,69.282247 37,52.4652111 37,49" id="Path-11"></path>
                <path d="M25,53 C26.0771584,48.0935369 30,30.6038196 30,27" id="Path-11-Copy"></path>
                <path d="M16,23 C16.4906444,22.4258595 18.8665699,16.9764325 19,16" id="Path-19"></path>
                <path d="M25,50 C16.6526998,44.6818971 10.6526998,38.6818971 7,32" id="Path-20"></path>
                <path d="M32,74 C31.2459166,73.8253612 16.4996792,61.9839184 14,57" id="Path-21"></path>
            </g>
        </g>
    </g>
</svg>