<?xml version="1.0" encoding="UTF-8" standalone="no"?>
<svg width="50px" height="34px" viewBox="0 0 50 34" version="1.1" xmlns="http://www.w3.org/2000/svg" xmlns:xlink="http://www.w3.org/1999/xlink">
    <!-- Generator: Sketch 47 (45396) - http://www.bohemiancoding.com/sketch -->
    <title>Group 5</title>
    <desc>Created with Sketch.</desc>
    <defs></defs>
    <g id="Page-1" stroke="none" stroke-width="1" fill="none" fill-rule="evenodd" opacity="0.529909049">
        <g id="Desktop-Copy-4" transform="translate(-873.000000, -105.000000)" stroke="#A7A9B3">
            <g id="Group-5" transform="translate(896.791699, 121.752211) rotate(140.000000) translate(-896.791699, -121.752211) translate(882.291699, 94.252211)">
                <path d="M5.05512321,0 C28.3033613,12.9274221 34.1154208,30.9759424 22.4913018,54.1455608 C8.18174664,41.7464743 7.78186449,44.9868803 2.5307175,30.2773939 C-2.72042949,15.5679076 1.55196404,5.52217191 3.30354362,2.08013541 C3.82441571,1.09330522 4.40827557,0.399926755 5.05512321,0 Z" id="Path-9" fill="#BFC0C7"></path>
                <path d="M10.4599379,13.5363902 C8.30218277,13.0626318 6.30034291,12.021529 5.53761417,11.6905188" id="Path-14"></path>
                <path d="M22.7657471,52.2996894 C15.8358755,31.8044479 12.2222891,20.7015813 11.9249881,18.9910896 C10.0450539,13.1725748 8.73631654,9.09827668 7.99877602,6.76819509" id="Path-10"></path>
                <path d="M19.6892948,45.5314943 C20.3520601,42.6287059 22.7657471,32.2813441 22.7657471,30.1492327" id="Path-11"></path>
                <path d="M15.3822616,32.6103945 C16.0450269,29.5914946 18.4587139,18.8302383 18.4587139,16.6128425" id="Path-11-Copy"></path>
                <path d="M9.84464741,14.1516807 C10.1465362,13.7984175 11.6084206,10.445437 11.6905188,9.84464741" id="Path-19"></path>
                <path d="M15.3822616,30.7645232 C10.2462474,27.4923451 6.55450461,23.8006024 4.30703324,19.6892948" id="Path-20"></path>
                <path d="M19.6892948,45.5314943 C19.2253145,45.4240407 10.1520953,38.1381139 8.61406648,35.0715564" id="Path-21"></path>
            </g>
        </g>
    </g>
</svg>