<?xml version="1.0" encoding="UTF-8" standalone="no"?>
<svg width="61px" height="63px" viewBox="0 0 61 63" version="1.1" xmlns="http://www.w3.org/2000/svg" xmlns:xlink="http://www.w3.org/1999/xlink">
    <!-- Generator: Sketch 47 (45396) - http://www.bohemiancoding.com/sketch -->
    <title>Fichier 1</title>
    <desc>Created with Sketch.</desc>
    <defs></defs>
    <g id="Page-1" stroke="none" stroke-width="1" fill="none" fill-rule="evenodd" opacity="0.494053172">
        <g id="Desktop-Copy-4" transform="translate(-463.000000, -296.000000)">
            <g id="Fichier-1" transform="translate(464.000000, 297.000000)">
                <path d="M35,24 C35,24 39.5004129,21.5090909 40,20" id="Shape" fill="#BDBFC6" fill-rule="nonzero"></path>
                <path d="M30,21 C30,21 32.3472222,17.3487476 31.9560185,16" id="Shape" fill="#BDBFC6" fill-rule="nonzero"></path>
                <path d="M22,27 C22,27 19.5090909,22.4995871 18,22" id="Shape" fill="#BDBFC6" fill-rule="nonzero"></path>
                <path d="M22,35 C22,35 17.98125,35.1412104 17,36" id="Shape" fill="#BDBFC6" fill-rule="nonzero"></path>
                <path d="M30,39 C30,39 27.6527778,42.6521181 28.0439815,44" id="Shape" fill="#BDBFC6" fill-rule="nonzero"></path>
                <path d="M38,35 C38,35 40.4909091,39.4962841 42,40" id="Shape" fill="#BDBFC6" fill-rule="nonzero"></path>
                <path d="M38,26 C38,26 42.015625,25.8612717 43,25" id="Shape" fill="#BDBFC6" fill-rule="nonzero"></path>
                <path d="M26,21 C26,21 25.8587896,16.984375 25,16" id="Shape" fill="#BDBFC6" fill-rule="nonzero"></path>
                <path d="M20,30 C20,30 11.2354474,25.2925335 8,26.0912478" id="Shape" fill="#BDBFC6" fill-rule="nonzero"></path>
                <path d="M25,38 C25,38 16.0059613,42.9852217 15,46" id="Shape" fill="#BDBFC6" fill-rule="nonzero"></path>
                <path d="M33,39 C33,39 33.4179688,48.6528366 36,51" id="Shape" fill="#BDBFC6" fill-rule="nonzero"></path>
                <path d="M38,31 C38,31 46.7670915,35.7074665 50,34.9087522" id="Shape" fill="#BDBFC6" fill-rule="nonzero"></path>
                <path d="M35,23 C35,23 43.9977645,18.016824 45,15" id="Shape" fill="#BDBFC6" fill-rule="nonzero"></path>
                <path d="M27,22 C27,22 26.5786736,12.3471634 24,10" id="Shape" fill="#BDBFC6" fill-rule="nonzero"></path>
                <path d="M25,38 C25,38 20.5,40.4872727 20,42" id="Shape" fill="#BDBFC6" fill-rule="nonzero"></path>
                <path d="M33,39 C33,39 33.1383285,43.01875 34,44" id="Shape" fill="#BDBFC6" fill-rule="nonzero"></path>
                <path d="M38,31 C38,31 41.6544637,33.3472222 43,32.9560185" id="Shape" fill="#BDBFC6" fill-rule="nonzero"></path>
                <path d="M33.1442467,22 C33.1442467,22 37.8967088,14.5761798 43.9981391,11.2558069 C43.9981391,11.2558069 44.4331722,-6.31720648 32,6.96428488 C32,6.96428488 33.0747876,10.5137669 33.1442467,22 Z" id="Shape" fill="#BDBFC6" fill-rule="nonzero"></path>
                <path d="M26,25 C26,25 21.4739411,16.8194298 21.4407697,9.69560889 C21.4407697,9.69560889 5.25679218,-0.18093322 11.3861373,17.8761791 C11.3861373,17.8761791 15.2450817,18.855335 26,25 Z" id="Shape" fill="#BDBFC6" fill-rule="nonzero"></path>
                <path d="M22,31.4592101 C22,31.4592101 12.8016285,31.3070049 6.7202407,28 C6.7202407,28 -9.66390443,36.5304122 8.73283857,40 C8.71830718,39.9965408 11.4647404,37.3191121 22,31.4592101 Z" id="Shape" fill="#BDBFC6" fill-rule="nonzero"></path>
                <path d="M26.8484419,38 C26.8484419,38 22.0959797,45.7883531 16.0018609,49.2897039 C16.0018609,49.2897039 15.5668278,67.7256074 28,53.7919532 C28,53.7740159 26.9252124,50.0466558 26.8484419,38 Z" id="Shape" fill="#BDBFC6" fill-rule="nonzero"></path>
                <path d="M35,37 C35,37 39.5297446,45.1808096 39.5592303,52.304839 C39.5592303,52.304839 55.7432078,62.1816702 49.6138627,44.1203343 C49.6138627,44.1203343 45.7622898,43.1448448 35,37 Z" id="Shape" fill="#BDBFC6" fill-rule="nonzero"></path>
                <path d="M38,29.5417867 C38,29.5417867 47.1983715,29.6904899 53.2797593,33 C53.2797593,33 69.6639044,24.4720461 51.2671614,21 C51.2671614,21 48.5316268,23.6766571 38,29.5417867 Z" id="Shape" fill="#BDBFC6" fill-rule="nonzero"></path>
                <path d="M39,30.9998685 C39,34.6399755 36.8072524,37.9216541 33.4442321,39.3146627 C30.0812117,40.7076714 26.2102079,39.9376808 23.6362635,37.3637365 C21.0623192,34.7897921 20.2923286,30.9187883 21.6853373,27.5557679 C23.0783459,24.1927476 26.3600245,22 30.0001315,22 C34.9706216,22 39,26.0293784 39,30.9998685 L39,30.9998685 Z" id="Shape" fill="#BDBFC6" fill-rule="nonzero"></path>
                <path d="M24.5615033,23 C24.5615033,23 27.8204222,20.5549931 33.6746791,22.0650407 C33.6746791,22.0650407 36.657106,0 24.5615033,0 C24.5615033,0 14.2981209,3.82098481 24.5615033,23 Z" id="Shape" stroke="#282E47" stroke-width="2"></path>
                <path d="M20.3740494,32 C20.3740494,32 19.8045661,27.8712715 24,23.5606116 C24,23.5606116 5.93872894,9.34768635 0.0276364371,19.8959937 C0.0276364371,19.8959937 -1.6123313,30.8601442 20.3740494,32 Z" id="Shape" stroke="#282E47" stroke-width="2"></path>
                <path d="M27,38.1720259 C27,38.1720259 23.1452761,36.6754727 21.5737348,31 C21.5737348,31 -0.00159984383,39.6650074 6.08070974,49.8122812 C6.08070974,49.8122812 14.7167739,56.4914089 27,38.1720259 Z" id="Shape" stroke="#282E47" stroke-width="2"></path>
                <path d="M35.4331852,38 C35.4331852,38 32.1788383,40.4414785 26.3261736,38.9349593 C26.3261736,38.9349593 23.3408723,60.9999976 35.4331852,60.9999976 C35.4331852,61.0035257 45.7085185,57.1825413 35.4331852,38 Z" id="Shape" stroke="#282E47" stroke-width="2"></path>
                <path d="M38.6254074,30 C38.6254074,30 39.1948053,34.125387 35,38.4401482 C35,38.4401482 53.058565,52.654353 58.9723756,42.1013828 C58.9723756,42.1013828 60.6120976,31.1399584 38.6254074,30 Z" id="Shape" stroke="#282E47" stroke-width="2"></path>
                <path d="M33,22.8283692 C33,22.8283692 36.8610211,24.32484 38.4321083,30 C38.4321083,30 59.9975042,21.33547 53.9206573,11.1887554 C53.9206573,11.1887554 45.2870881,4.50642415 33,22.8283692 Z" id="Shape" stroke="#282E47" stroke-width="2"></path>
            </g>
        </g>
    </g>
</svg>