<?xml version="1.0" encoding="UTF-8"?>
<svg width="117px" height="195px" viewBox="0 0 117 195" version="1.1" xmlns="http://www.w3.org/2000/svg" xmlns:xlink="http://www.w3.org/1999/xlink">
    <!-- Generator: Sketch 47 (45396) - http://www.bohemiancoding.com/sketch -->
    <title>Shape</title>
    <desc>Created with Sketch.</desc>
    <defs></defs>
    <g id="Page-1" stroke="none" stroke-width="1" fill="none" fill-rule="evenodd">
        <path d="M10.6,82.16 C10,78.16 15.6,69.83 16.91,65.16 C13.24,63.66 4.91,63.5 0.07,64.9 C6.02,60.33 14.5,55.79 19.15,57.54 L22.38,44.25 L11.73,45.91 C16.32,41.32 19.1,36.97 24.15,38.81 C25.8103663,35.5485311 26.6998761,31.9494376 26.75,28.29 C29.26,31.81 31.11,39.02 32.19,42.9 L40.49,45.07 C38.61,38.24 37.24,32 35.02,26 C34.42,24.4 31.34,23.46 29.22,22.75 C23.54,20.86 21.12,14.87 17.86,10.69 L28.32,12.17 C29.5,8.68 28.52,5.17 30,0.79 C31.2,3.65 35.31,6.11 36.71,8.28 C39.57,6.87 43.71,5.55 46.46,3.48 C46.19,5.84 46.2,6.48 45.83,8.48 C45.2715255,11.2710737 44.1485503,13.9185729 42.53,16.26 C36.33,25.26 41.85,33.69 43.4,42.42 C49.49,36.18 43.63,24.53 48.33,18.1 C49.42,19.51 50.33,23.1 51.01,24.03 C54.59,21.68 57.69,20.16 60.94,16.75 C61.58,24.6 57.65,28.4 55.33,33.95 C57.98,33.47 61.59,29.18 66.49,29.9 C64.98,35.35 58.85,39.71 54.97,40.48 C47.12,42.04 44.24,47.08 46.14,54.9 C47.42,60.18 47.79,65.68 48.53,71.09 C48.6133294,72.9664444 49.0652554,74.808128 49.86,76.51 C51.69,71.28 53.43,66.01 55.39,60.82 C56.78,57.14 53.85,56.32 51.85,54.71 C50.78,53.84 46.65,51.71 46.56,50.08 C47.63,49.56 51.56,50.76 52.23,49.93 C53.57,48.3 54.23,46.15 55.83,44.2 C58.03,46.92 58.93,50.68 65.17,46.13 C63.81,50.56 64.77,52.26 64.63,54.37 C68.47,53.37 69.23,52.24 69.26,47.01 C69.2081389,43.2421823 69.3449769,39.474131 69.67,35.72 C73.58,42.1 78.82,41.1 84.79,38.62 C82.98,48.12 82.98,48.12 87.12,52.96 C83.01,53.36 79.72,53.58 76.47,54.02 C74.0085683,54.2282601 71.5811285,54.7318783 69.24,55.52 C66.1919724,56.7795679 63.2774839,58.3406617 60.54,60.18 C58.9815838,61.4004581 57.8165692,63.0523445 57.19,64.93 C61.5,62.83 67.3,65.74 70.34,59.54 C72.02,56.1 80.17,59.14 84.09,62.17 L75.55,63.45 C78.24,66.35 82.15,75.91 85.19,78.9 C84.35,79.62 82.19,77.8 81.53,77.22 L71.92,71.47 C70.51,73.37 68.54,75.47 71.14,79.07 C71.83,80.02 70.65,83.69 69.34,84.47 C64.14,87.6 65.02,90.25 69.14,93.33 C69.58,93.65 69.65,94.45 70,95.33 C66.72,96.81 64.62,95.46 62.41,93.46 C60.94,92.14 58.22,90.1 57.34,90.61 C54.78,92.08 51.12,94.61 51,96.84 C50.57,105.07 51.34,113.38 51.83,121.64 C51.89,122.59 53,123.48 53.18,123.75 C57.68,121.75 61.75,118.88 66.18,116.92 C67.71,123.69 63.91,125.68 61.31,128.66 L70.55,136.98 C66.29,136.28 61.99,135.79 57.74,135.05 C54.21,134.43 52.48,135.3 52.61,139.4 C52.82,146.69 52.45,154 52.51,161.3 C52.51,163.2 53.17,165.09 53.83,168.5 C58.73,161.38 63,155.56 66.83,149.5 C70.47,143.78 74.21,138.01 76.89,131.82 C78.89,127.23 81.41,122.73 81.89,117.69 C82.37,112.65 77.54,109.85 72.98,107.07 C70.18,105.37 68.05,105.16 67.65,99.82 L76.17,103.48 L80.49,90 C80.79,94.39 80.49,98.44 81.86,103.15 C85.97,102.4 88.79,101 88.27,96.07 C88.04,93.96 89.49,87.83 89.64,86.7 L102.64,90.61 L98.33,95.91 C100.16,96.71 101.96,97.19 103.33,98.23 C104.19,98.87 113.28,102.23 113.79,103.34 C112.79,103.75 102.88,102.64 101.89,102.59 C99.9661858,102.386581 98.0584451,102.052476 96.18,101.59 C91.37,108.59 86.49,116.97 81.87,123.69 C82.25,124.22 83.16,124.49 83.54,125.02 C88.39,122.7 93.85,124.46 98.87,122.86 C100.16,122.45 101.17,120.57 102.38,119.57 C104.01,118.21 106.67,117.7 108.89,117.57 C110.497887,117.696552 111.956507,118.560646 112.84,119.91 C113.31,120.74 112.07,122.53 111.68,123.64 C112.54,126.97 110.22,130.3 114.17,133.84 C114.86,134.45 116.93,138.84 116.76,143.3 C116.76,143.93 110.23,136.07 109.45,135.42 C107.395833,133.806623 105.859238,131.626883 105.03,129.15 C102.34,131.59 99.38,133.55 96.36,137.04 C97.2191226,133.157551 97.6715631,129.196182 97.71,125.22 C88.77,123.63 84.49,125.64 80.15,132.57 C72.7,144.51 64.95,156.28 57.57,168.26 C54.17,173.79 51.76,179.72 52.01,186.53 C52.11,189.21 51.07,191.92 50.55,194.62 L48.14,194.27 C48.4,189.98 47.81,185.4 49.09,181.43 C52.59,170.59 49.38,161.31 43.75,152.36 C42.83,150.91 41.26,149.87 40.11,148.76 C38.34,152.66 38.44,157.21 35.47,158.67 C34.0924044,159.359678 32.6767974,159.970659 31.23,160.5 C31.12,158.11 30.36,158.86 30.23,156.5 C27.51,158.5 26.03,158.11 23.51,159.41 C21.72,160.33 20.51,159.68 19.01,159.76 C20.85,158.43 19.21,156.6 19.61,155.32 C20.61,152.18 23.18,149.77 25.16,146.77 L21.61,140.38 L38.49,146.38 L39.49,145.23 L34.49,135.87 C30.02,136.56 25.67,140.06 22.17,135.62 C24.59,132.42 28.1,129.69 28.75,126.4 C29.36,123.28 27.08,119.58 26.02,116.13 L27.61,114.88 L36.4,120.08 L41.56,114.08 C45.15,118.78 43.86,123.15 41.84,127.61 C37.84,136.5 40.84,147.28 49.26,153.61 C49.68,142.48 50.9,130.7 45.9,119.66 L48.95,119.29 C48.1033333,108.69 47.26,98.11 46.42,87.55 C45.86,80.69 39.67,78.09 35.85,73.7 C34.9015144,72.7631332 33.8998557,71.8816735 32.85,71.06 C29.2,67.68 22.6,67.44 20.26,71.84 L10.6,82.16 Z M45.15,78.1 C46.9,69.47 44.15,61.98 42.5,54.25 C41.29,48.51 37.8,46.11 32.96,46.31 C30.57,46.41 28.19,49.4 26.1,51.4 C25.8,51.68 26.87,54.28 27.85,54.84 C30.57,56.39 33.18,56.06 34.95,53.02 C35.62,51.85 36.47,50.79 37.38,49.49 L42.73,63.56 L36.63,63.56 C37.77,69.62 40.07,74.8 45.11,78.14 L45.15,78.1 Z M50.28,90.16 L52.98,90.89 C53.7,88.57 54.51,86.28 55.1,83.89 C55.75,81.31 56.21,78.68 56.74,76.07 L58.05,75.89 L60.6,81.02 C66.43,79.2 66.43,79.2 66.04,66.89 C58.1,66.35 54.93,68.79 53.79,76.06 C53.52,77.82 52.52,79.46 52.1,81.21 C51.31,84.21 50.83,87.21 50.24,90.21 L50.28,90.16 Z M28.62,55.23 C26.39,61.03 29.03,63.6 33.15,67.06 C34.49,61.8 31.89,58.39 28.58,55.27 L28.62,55.23 Z M91.56,104.61 C81.45,110.25 81.45,110.25 84.21,113.95 L91.56,104.61 Z" id="Shape" fill="#FFFFFF" fill-rule="nonzero"></path>
    </g>
</svg>