<?xml version="1.0" encoding="UTF-8"?>
<svg width="48px" height="38px" viewBox="0 0 48 38" version="1.1" xmlns="http://www.w3.org/2000/svg" xmlns:xlink="http://www.w3.org/1999/xlink">
    <!-- Generator: Sketch 47 (45396) - http://www.bohemiancoding.com/sketch -->
    <title>Group 5</title>
    <desc>Created with Sketch.</desc>
    <defs></defs>
    <g id="Page-1" stroke="none" stroke-width="1" fill="none" fill-rule="evenodd">
        <g id="iPhone-SE-Copy-2" transform="translate(-33.000000, -2599.000000)">
            <g id="Group-5" transform="translate(33.000000, 2599.000000)">
                <g>
                    <g id="stopwatch" fill-rule="nonzero" fill="#FFFFFF">
                        <path d="M18.9222737,18.9781476 L10.8996759,13.1622737 C10.6542379,12.9852445 10.3139717,13.011333 10.0982838,13.2268738 C9.88259592,13.4430357 9.85594483,13.7834287 10.0338254,14.0300272 L15.8381848,22.0714994 C16.2187375,22.5963753 16.8069209,22.9262086 17.4521252,22.9765221 C17.5103857,22.9808702 17.5680264,22.9827337 17.6250474,22.9827337 C18.2088922,22.9827337 18.7704244,22.751664 19.1863054,22.3342479 C19.6430927,21.8764567 19.8767545,21.2434998 19.8265513,20.5968775 C19.7763481,19.9502552 19.4472381,19.3607791 18.9222737,18.9781476 Z M18.3099184,21.4559348 C18.1091055,21.6565678 17.829579,21.7590584 17.5488128,21.737318 C17.2661873,21.7155776 17.0077337,21.5702273 16.8416293,21.3416423 L13.3007531,16.4363815 L18.1940171,19.9837975 C18.4239603,20.1515094 18.568372,20.410531 18.5906845,20.6943988 C18.6129971,20.9770243 18.5101115,21.2553017 18.3099184,21.4559348 Z" id="Shape"></path>
                        <path d="M33.5190135,16.1636945 C33.5183937,16.161831 33.5190135,16.1593464 33.5183937,16.1574829 C33.5177739,16.1549983 33.5159145,16.1531349 33.5152947,16.1506502 C33.1359815,14.7350381 32.5744493,13.3945857 31.860448,12.1522757 C31.8542501,12.1392315 31.8542501,12.1255661 31.8468125,12.1125218 C31.839375,12.1000987 31.827599,12.093266 31.8195417,12.0814641 C31.1929312,11.0037602 30.451659,10.0024584 29.6093606,9.09432984 L30.9400557,7.76071013 L31.8170625,8.63902325 L34.4462235,6.00408389 L31.8170625,3.36852337 L29.1872817,6.00408389 L30.0636687,6.88239701 L28.7329736,8.21601672 C27.8268366,7.37248827 26.8277306,6.62896578 25.7523901,6.00097811 C25.7406141,5.9929031 25.7337963,5.98110115 25.7214005,5.97364729 C25.7090046,5.96619343 25.6941296,5.96681459 25.6817337,5.95998188 C24.4421482,5.24379021 23.1046353,4.68164497 21.6927474,4.30149813 C21.6902682,4.30087697 21.6884088,4.29901351 21.6859297,4.29839235 C21.6834505,4.2977712 21.6815911,4.29839235 21.6797317,4.29839235 C20.8789595,4.08347274 20.0558747,3.92694169 19.2135763,3.83314729 L19.2135763,3.10577482 L20.1432654,3.10577482 C20.9979597,3.10577482 21.6927474,2.40946011 21.6927474,1.55288741 C21.6927474,0.696314715 20.9979597,0 20.1432654,0 L14.5651304,0 C13.7104361,0 13.0156484,0.696314715 13.0156484,1.55288741 C13.0156484,2.40946011 13.7104361,3.10577482 14.5651304,3.10577482 L15.4948196,3.10577482 L15.4948196,3.83314729 C14.6525212,3.92694169 13.8294364,4.08347274 13.0292839,4.29839235 C13.0268047,4.29901351 13.0249453,4.29839235 13.0230859,4.29901351 C13.0206068,4.29963466 13.0187474,4.30149813 13.0162682,4.30211928 C11.6043803,4.68226612 10.2668674,5.24503252 9.02728188,5.96060304 C9.01426623,5.96681459 9.000011,5.96681459 8.98699535,5.97426845 C8.97459949,5.98172231 8.96778177,5.99352425 8.95600571,6.00159927 C7.88128502,6.62958694 6.88155927,7.37248827 5.97542222,8.21663787 L4.64472711,6.88239701 L5.52111411,6.00408389 L2.89133333,3.36852337 L0.262172347,6.00408389 L2.89133333,8.63902325 L3.76834012,7.76071013 L5.09903522,9.09432984 C4.25735662,10.0024584 3.51546466,11.0037602 2.88947395,12.0814641 C2.88141665,12.093266 2.86902079,12.1000987 2.86220307,12.1125218 C2.85476556,12.1255661 2.85538535,12.1392315 2.84856763,12.1522757 C2.13394655,13.3945857 1.57303408,14.7350381 1.1937209,16.1506502 C1.19310111,16.1531349 1.19124173,16.1549983 1.19062194,16.1574829 C1.19000214,16.1593464 1.19062194,16.161831 1.19000214,16.1636945 C0.819985851,17.5476277 0.619792783,18.9992669 0.619792783,20.4981138 C0.619792783,21.9969608 0.819985851,23.4485999 1.18938235,24.8325332 C1.19000214,24.8350178 1.18938235,24.8368813 1.19000214,24.8387447 C1.19062194,24.8418505 1.19310111,24.8443351 1.1937209,24.8474409 C1.57303408,26.2624319 2.13394655,27.6022632 2.84794784,28.8439519 C2.85414576,28.8569962 2.85414576,28.8706616 2.86158328,28.8837059 C2.87211975,28.9017193 2.88699478,28.9153848 2.89877084,28.9321559 C3.62082944,30.1701178 4.49349767,31.309316 5.4963224,32.3199351 C5.50623908,32.3317371 5.50995784,32.3460236 5.52111411,32.3572044 C5.53227038,32.3683852 5.54652561,32.3721121 5.55830167,32.3820506 C6.57104308,33.3920486 7.71394097,34.2697405 8.95600571,34.9952495 C8.96778177,35.0033246 8.97459949,35.0151265 8.98699535,35.0225804 C9.00558913,35.03314 9.02604229,35.0381092 9.04525587,35.0468054 C10.2792633,35.7574067 11.611198,36.3164462 13.0162682,36.6947295 C13.0187474,36.6953507 13.0206068,36.6972141 13.0230859,36.6978353 C13.0261849,36.6984565 13.0292839,36.6984565 13.0323828,36.6990776 C14.4120416,37.069286 15.8598775,37.2692979 17.3541979,37.2692979 C18.8485183,37.2692979 20.2963543,37.069286 21.676013,36.6990776 C21.6791119,36.6984565 21.6822109,36.6990776 21.6853099,36.6978353 C21.687789,36.6972141 21.6896484,36.6953507 21.6921276,36.6947295 C23.0971978,36.3164462 24.4285127,35.7574067 25.66314,35.0468054 C25.6823535,35.0381092 25.7028067,35.0337612 25.7214005,35.0225804 C25.7337963,35.0151265 25.7406141,35.0033246 25.7523901,34.9952495 C26.9944549,34.2697405 28.136733,33.3920486 29.1500942,32.3820506 C29.1618702,32.3721121 29.1761254,32.3683852 29.1872817,32.3572044 C29.198438,32.3460236 29.2021567,32.3311159 29.2120734,32.3199351 C30.2148982,31.309316 31.0875664,30.1701178 31.809625,28.9321559 C31.821401,28.9153848 31.8362761,28.9023405 31.8468125,28.8837059 C31.8542501,28.8706616 31.8536303,28.8569962 31.860448,28.8439519 C32.5744493,27.6022632 33.1353617,26.2624319 33.5146749,24.8474409 C33.5152947,24.8443351 33.5177739,24.8418505 33.5183937,24.8387447 C33.5190135,24.8368813 33.5183937,24.8343966 33.5190135,24.8325332 C33.88841,23.4485999 34.088603,21.9969608 34.088603,20.4981138 C34.088603,18.9992669 33.88841,17.5476277 33.5190135,16.1636945 Z M31.8170625,5.12514961 L32.6934495,6.00408389 L31.8170625,6.88239701 L30.9400557,6.00408389 L31.8170625,5.12514961 Z M2.01494634,6.00408389 L2.89133333,5.12514961 L3.76834012,6.00408389 L2.89133333,6.88239701 L2.01494634,6.00408389 Z M30.962988,24.795885 L32.1498912,25.1145375 C31.8678855,26.0201815 31.5022078,26.8891773 31.0671132,27.7159345 L30.0091269,27.1034757 C29.712866,26.9314158 29.3335528,27.0326641 29.16249,27.3308184 C28.9914272,27.6283517 29.0930732,28.0078774 29.3893342,28.1793161 L30.4448413,28.7899115 C29.9409497,29.5862321 29.368881,30.3341027 28.7329736,31.0235847 L27.8720814,30.1608005 C27.6297425,29.9179289 27.2380334,29.9179289 26.9956944,30.1608005 C26.7533555,30.403672 26.7533555,30.796242 26.9956944,31.0391136 L27.8565866,31.9018978 C27.1686166,32.5392028 26.4223861,33.1125288 25.6278118,33.6175278 L25.0185555,32.5597009 C24.8468729,32.2615465 24.4669399,32.1596771 24.1719185,32.3323582 C23.8750378,32.503797 23.7733918,32.8839438 23.9450744,33.1808559 L24.55619,34.2411674 C23.7312459,34.6772182 22.8647755,35.0436996 21.9604979,35.3263251 L21.6425442,34.1374345 C21.5539138,33.8057378 21.2142674,33.6082105 20.883298,33.698278 C20.5529485,33.7871031 20.3564742,34.1274961 20.4451045,34.4591928 L20.7618186,35.6443565 C19.8594003,35.8480953 18.9278518,35.9735686 17.9739907,36.0114591 L17.9739907,34.784678 C17.9739907,34.4411793 17.6969433,34.163523 17.3541979,34.163523 C17.0114525,34.163523 16.7344051,34.4411793 16.7344051,34.784678 L16.7344051,36.0114591 C15.780544,35.9735686 14.8489955,35.8480953 13.9465772,35.6443565 L14.2632913,34.4591928 C14.3519217,34.1281172 14.1554474,33.7871031 13.8250978,33.698278 C13.4947483,33.6088317 13.154482,33.8057378 13.0658516,34.1374345 L12.747898,35.3263251 C11.8442401,35.0436996 10.97715,34.6772182 10.1522058,34.2411674 L10.7633215,33.1808559 C10.9343843,32.8833227 10.8327383,32.503797 10.5364773,32.3323582 C10.2402164,32.1602983 9.86090317,32.2615465 9.68984036,32.5597009 L9.08058406,33.6175278 C8.28600971,33.1125288 7.5397792,32.5392028 6.85180921,31.9018978 L7.71270139,31.0391136 C7.95504036,30.796242 7.95504036,30.403672 7.71270139,30.1608005 C7.47036241,29.9179289 7.07865337,29.9179289 6.83631439,30.1608005 L5.97542222,31.0235847 C5.33951482,30.3341027 4.76744608,29.5862321 4.26355455,28.7899115 L5.31906166,28.1793161 C5.6159424,28.0078774 5.71758842,27.6277305 5.54590582,27.3308184 C5.37422322,27.0326641 4.99429024,26.9307946 4.69926888,27.1034757 L3.6412826,27.7159345 C3.20618806,26.8891773 2.84051032,26.0208026 2.55850461,25.1145375 L3.74540779,24.795885 C4.07575734,24.7070599 4.27223165,24.3666669 4.18360128,24.0349702 C4.09559071,23.7032734 3.75594426,23.5057462 3.42435512,23.5958136 L2.2411707,23.9132238 C2.03849846,23.0088222 1.91268053,22.0752263 1.87487317,21.1192688 L3.09896391,21.1192688 C3.44170932,21.1192688 3.7187567,20.8416125 3.7187567,20.4981138 C3.7187567,20.1546151 3.44170932,19.8769589 3.09896391,19.8769589 L1.87487317,19.8769589 C1.91268053,18.9210014 2.03787867,17.9874055 2.2411707,17.0830038 L3.42435512,17.4010352 C3.4782771,17.4153217 3.53219907,17.4221544 3.58550125,17.4221544 C3.85882986,17.4221544 4.10922615,17.2395349 4.18360128,16.9618786 C4.27285144,16.630803 4.07575734,16.2897889 3.74540779,16.2009638 L2.55850461,15.8816901 C2.84051032,14.9760462 3.20618806,14.1070504 3.6412826,13.2802931 L4.69926888,13.8927519 C4.79595655,13.949277 4.90256091,13.9759867 5.00792568,13.9759867 C5.22237399,13.9759867 5.43062436,13.8648 5.54528603,13.6654092 C5.71634883,13.367876 5.61470282,12.9883503 5.31844187,12.8169115 L4.26293476,12.2063162 C4.76682629,11.4099955 5.33889503,10.662125 5.97480242,9.97264296 L6.8356946,10.8354272 C6.95655419,10.9565524 7.11522114,11.0174256 7.2738881,11.0174256 C7.43255505,11.0174256 7.591222,10.9565524 7.71208159,10.8354272 C7.95442057,10.5925556 7.95442057,10.1999857 7.71208159,9.95711408 L6.85118942,9.09432984 C7.53915941,8.457646 8.28538992,7.88369881 9.07996426,7.37869982 L9.68922057,8.43714788 C9.80450203,8.63591747 10.0121326,8.74772537 10.2265809,8.74772537 C10.3319457,8.74772537 10.43855,8.7210157 10.5358575,8.6644906 C10.8327383,8.49305183 10.9343843,8.11290499 10.7627017,7.81599292 L10.151586,6.75506024 C10.9765302,6.31900945 11.8430005,5.95252803 12.7472782,5.66990252 L13.0652319,6.85941427 C13.1389872,7.13644939 13.3893835,7.3196901 13.6633319,7.3196901 C13.7166341,7.3196901 13.770556,7.3128574 13.824478,7.29857083 C14.1548276,7.20974567 14.3513019,6.86935275 14.2626715,6.537656 L13.9459574,5.35187117 C14.6723545,5.18788626 15.4167257,5.07545722 16.1772114,5.01831096 C16.3693472,5.00402439 16.5428892,4.99346476 16.710853,4.98538975 C16.7189103,4.98538975 16.7263478,4.98538975 16.7344051,4.98476859 L16.7344051,6.21154965 C16.7344051,6.55504834 17.0114525,6.83270461 17.3541979,6.83270461 C17.6969433,6.83270461 17.9739907,6.55504834 17.9739907,6.21154965 L17.9739907,4.98476859 C17.982048,4.98476859 17.9894855,4.98476859 17.9975428,4.98538975 C18.1655067,4.99346476 18.3384289,5.00402439 18.5311844,5.01831096 C19.2916702,5.07607837 20.0366611,5.18788626 20.7624384,5.35187117 L20.4457243,6.537656 C20.3570939,6.8687316 20.5535683,7.20974567 20.8839178,7.29857083 C20.9378398,7.3128574 20.9917618,7.3196901 21.0450639,7.3196901 C21.3183925,7.3196901 21.5694086,7.13644939 21.643164,6.85941427 L21.9611177,5.66990252 C22.8647755,5.95252803 23.7318656,6.31900945 24.5568098,6.75506024 L23.9456942,7.81599292 C23.7746313,8.11352615 23.8762774,8.49305183 24.1725383,8.6644906 C24.2698458,8.7210157 24.3764501,8.74772537 24.4818149,8.74772537 C24.6962632,8.74772537 24.9045136,8.63591747 25.0191753,8.43714788 L25.6284316,7.37869982 C26.4230059,7.88369881 27.1692364,8.457646 27.8572064,9.09432984 L26.9963142,9.95711408 C26.7539753,10.1999857 26.7539753,10.5925556 26.9963142,10.8354272 C27.1171738,10.9565524 27.2758408,11.0174256 27.4345077,11.0174256 C27.5931747,11.0174256 27.7518416,10.9565524 27.8727012,10.8354272 L28.7335934,9.97264296 C29.3695008,10.662125 29.9415695,11.4099955 30.4454611,12.2063162 L29.389954,12.8169115 C29.0930732,12.9883503 28.9914272,13.367876 29.1631098,13.6654092 C29.2783913,13.8648 29.4860218,13.9759867 29.7004701,13.9759867 C29.8058349,13.9759867 29.9124393,13.949277 30.0097467,13.8927519 L31.067733,13.2802931 C31.5028276,14.1070504 31.8685053,14.975425 32.150511,15.8816901 L30.9636078,16.2009638 C30.6332583,16.2897889 30.4361642,16.6301819 30.5254143,16.9618786 C30.5997895,17.2395349 30.849566,17.4221544 31.1235144,17.4221544 C31.1768165,17.4221544 31.2307385,17.4153217 31.2846605,17.4010352 L32.4678449,17.0830038 C32.6711369,17.9874055 32.7963351,18.9210014 32.8341425,19.8769589 L31.6094319,19.8769589 C31.2666865,19.8769589 30.9896391,20.1546151 30.9896391,20.4981138 C30.9896391,20.8416125 31.2666865,21.1192688 31.6094319,21.1192688 L32.8335227,21.1192688 C32.7957153,22.0752263 32.6705172,23.0088222 32.4672251,23.913845 L31.2840407,23.5964348 C30.9549307,23.5069885 30.6134249,23.7045158 30.5247945,24.0355914 C30.4361642,24.3666669 30.6326385,24.7070599 30.962988,24.795885 Z M16.7344051,3.7405952 L16.7344051,1.86346489 L14.5651304,1.86346489 C14.3946874,1.86346489 14.255234,1.72370503 14.255234,1.55288741 C14.255234,1.3820698 14.3946874,1.24230993 14.5651304,1.24230993 L20.1432654,1.24230993 C20.3137084,1.24230993 20.4531618,1.3820698 20.4531618,1.55288741 C20.4531618,1.72370503 20.3137084,1.86346489 20.1432654,1.86346489 L17.9739907,1.86346489 L17.9739907,3.7405952 C17.7570632,3.73127787 17.5531514,3.72692979 17.3541979,3.72692979 C17.1552444,3.72692979 16.9513326,3.73127787 16.7344051,3.7405952 Z" id="Shape"></path>
                    </g>
                    <path d="M47,3.5 L47,32.5" id="Line" stroke="#FFFFFF" stroke-width="2" stroke-linecap="square"></path>
                </g>
            </g>
        </g>
    </g>
</svg>