<?xml version="1.0" encoding="UTF-8"?>
<svg width="35px" height="35px" viewBox="0 0 35 35" version="1.1" xmlns="http://www.w3.org/2000/svg" xmlns:xlink="http://www.w3.org/1999/xlink">
    <!-- Generator: Sketch 47 (45396) - http://www.bohemiancoding.com/sketch -->
    <title>tea-bag</title>
    <desc>Created with Sketch.</desc>
    <defs></defs>
    <g id="Page-1" stroke="none" stroke-width="1" fill="none" fill-rule="evenodd">
        <g id="iPhone-SE-Copy-2" transform="translate(-255.000000, -2496.000000)" fill-rule="nonzero" fill="#FFFFFF">
            <g id="tea-bag" transform="translate(255.000000, 2496.000000)">
                <path d="M34.8968421,31.8654191 L33.2004678,25.5362183 C33.1065887,25.1825341 32.8402339,24.9008967 32.4952827,24.7851852 L29.1811306,23.6651852 C26.7249903,19.4209747 27.6550487,14.8383626 28.462846,12.4477193 C29.7531384,8.62923977 28.694269,4.50510721 25.8254971,2.18432749 C24.0832749,0.776140351 21.891306,0.00109161793 19.6491228,0.00109161793 C14.605848,0.00109161793 10.4860819,3.8348538 9.93590643,8.73403509 L5.45808967,8.73403509 C5.1677193,8.73403509 4.89044834,8.84974659 4.68522417,9.05278752 L0.318752437,13.4192593 C0.115711501,13.6244834 0,13.9017544 0,14.1921248 L0,33.8412476 C0,34.4438207 0.489044834,34.9328655 1.09161793,34.9328655 L20.7407407,34.9328655 C21.3433138,34.9328655 21.8323587,34.4438207 21.8323587,33.8412476 L21.8323587,14.1921248 C21.8323587,13.9017544 21.7166472,13.6244834 21.5136062,13.4192593 L17.1471345,9.05278752 C16.9419103,8.84974659 16.6646394,8.73403509 16.374269,8.73403509 L12.1191423,8.73403509 C12.6540351,5.04 15.8109942,2.18432749 19.6491228,2.18432749 C21.3935283,2.18432749 23.0986355,2.78690058 24.4522417,3.88070175 C26.6136452,5.62947368 27.3952437,8.79079922 26.3953216,11.7469006 C25.4892788,14.425731 24.4762573,19.5192203 27.1070565,24.394386 L25.0002339,26.7915789 C24.760078,27.0644834 24.6705653,27.4421832 24.7666277,27.7936842 L26.4608187,34.1207018 C26.5896296,34.6119298 27.0306433,34.9328655 27.5131384,34.9328655 C27.6070175,34.9328655 27.7008967,34.9219493 27.7969591,34.8957505 L34.1239766,33.2015595 C34.7069006,33.0465497 35.0518519,32.4461598 34.8968421,31.8654191 Z M15.9223392,10.917271 L19.6491228,14.6440546 L19.6491228,32.7496296 L2.18323587,32.7496296 L2.18323587,14.6440546 L5.91001949,10.917271 L15.9223392,10.917271 Z M28.2860039,32.5051072 L27.0240936,27.7958674 L28.7553996,25.8265887 L31.2421053,26.6671345 L32.5040156,31.3763743 L28.2860039,32.5051072 Z" id="Shape"></path>
                <path d="M16.374269,22.9250682 C14.4006238,22.9250682 12.6867836,23.9883041 11.7261598,25.5602339 C10.4926316,23.2918519 8.11290448,21.8334503 5.45808967,21.8334503 C5.10658869,21.8334503 4.77692008,22.0015595 4.57169591,22.2875634 C4.36647173,22.571384 4.3097076,22.9381676 4.42323587,23.2722027 L5.2288499,25.6868616 C6.20038986,28.605848 8.92288499,30.5663938 12.0012476,30.5663938 L12.0077973,30.5663938 C15.0162963,30.5663938 17.4658869,28.1168031 17.4658869,25.1083041 L17.4658869,24.0166862 C17.4658869,23.4141131 16.9768421,22.9250682 16.374269,22.9250682 Z M7.2985575,24.9947758 L7.0605848,24.2786745 C8.49933723,24.7677193 9.66736842,25.9030019 10.1673294,27.4050682 L10.4053021,28.1211696 C8.96654971,27.6321248 7.79851852,26.4968421 7.2985575,24.9947758 Z M13.1059649,28.1932164 C13.1823782,26.8548928 14.0665887,25.7283431 15.2782846,25.2960624 C15.2018713,26.634386 14.3176608,27.7609357 13.1059649,28.1932164 Z" id="Shape"></path>
                <path d="M12.0077973,13.1005068 L9.8245614,13.1005068 C9.2219883,13.1005068 8.73294347,13.5895517 8.73294347,14.1921248 C8.73294347,14.7946979 9.2219883,15.2837427 9.8245614,15.2837427 L12.0077973,15.2837427 C12.6103704,15.2837427 13.0994152,14.7946979 13.0994152,14.1921248 C13.0994152,13.5895517 12.6103704,13.1005068 12.0077973,13.1005068 Z" id="Shape"></path>
            </g>
        </g>
    </g>
</svg>