<?xml version="1.0" encoding="UTF-8"?>
<svg width="41px" height="37px" viewBox="0 0 41 37" version="1.1" xmlns="http://www.w3.org/2000/svg" xmlns:xlink="http://www.w3.org/1999/xlink">
    <!-- Generator: Sketch 47 (45396) - http://www.bohemiancoding.com/sketch -->
    <title>tea</title>
    <desc>Created with Sketch.</desc>
    <defs></defs>
    <g id="Page-1" stroke="none" stroke-width="1" fill="none" fill-rule="evenodd">
        <g id="iPhone-SE-Copy-4" transform="translate(-140.000000, -373.000000)" fill-rule="nonzero">
            <g id="tea" transform="translate(140.000000, 373.000000)">
                <path d="M18.5988313,36.9995787 C31.3162989,36.9995787 37.1976626,32.6126437 37.1976626,32.6126437 L0,32.6126437 C0,32.6672415 5.88136377,36.9995787 18.5988313,36.9995787 Z" id="Shape" fill="#1E243C"></path>
                <path d="M39.953045,18.2807156 L33.064589,18.2807156 C33.0521898,18.2807156 33.0418571,18.2868578 33.0301467,18.2875403 C33.0508121,17.8350609 33.064589,17.379169 33.064589,16.91577 L14.4657577,16.91577 L14.4657577,18.9631883 L15.8434489,18.9631883 C16.2236917,18.9631883 16.5322945,19.2682537 16.5322945,19.6456611 L16.5322945,24.7642069 C16.5322945,25.1416143 16.2236917,25.4466796 15.8434489,25.4466796 L11.7103753,25.4466796 C11.3301325,25.4466796 11.0215297,25.1416143 11.0215297,24.7642069 L11.0215297,19.6456611 C11.0215297,19.2682537 11.3301325,18.9631883 11.7103753,18.9631883 L13.0880665,18.9631883 L13.0880665,16.91577 L4.13307362,16.91577 C4.13307362,22.9188005 5.85656533,28.0762472 9.46060553,31.2476982 L27.7370571,31.2476982 C29.0203765,30.1188882 30.0605333,28.734151 30.87406,27.1528616 L31.6868978,27.1528616 C36.7919326,27.1528616 40.6418906,23.6319846 40.6418906,18.9631883 C40.6418906,18.5857809 40.3332878,18.2807156 39.953045,18.2807156 Z M31.6868978,25.787916 L31.4995318,25.787916 C32.25244,23.9336375 32.7277435,21.8548255 32.9364637,19.6197271 C32.9791721,19.6279168 33.0191252,19.6456611 33.064589,19.6456611 L39.2318237,19.6456611 C38.8874009,23.2436575 35.8206603,25.787916 31.6868978,25.787916 Z" id="Shape" fill="#1E243C"></path>
                <path d="M9.5659989,10.8915829 C9.5659989,11.7303419 9.89595595,12.5192805 10.4959405,13.1130318 C10.6302654,13.246114 10.8066098,13.3129963 10.9829543,13.3129963 C11.1592988,13.3129963 11.3356433,13.246114 11.4699682,13.1130318 C11.7393068,12.8461849 11.7393068,12.4148621 11.4699682,12.1480153 C11.1310561,11.8122387 10.9436901,11.3659015 10.9436901,10.8915829 C10.9436901,10.4172643 11.1303673,9.97024467 11.4699682,9.63446807 C12.0692638,9.04071676 12.3999097,8.25177824 12.3999097,7.41233674 C12.3999097,6.57289523 12.0699527,5.78395671 11.4699682,5.1902054 C11.2006295,4.92335855 10.7645903,4.92335855 10.4959405,5.1902054 C10.2266018,5.45705226 10.2266018,5.88837505 10.4959405,6.1552219 C10.8348525,6.4909985 11.0215297,6.93801816 11.0215297,7.41233674 C11.0215297,7.88665531 10.8348525,8.33367497 10.4952516,8.66945158 C9.89595595,9.26320289 9.5659989,10.0521414 9.5659989,10.8915829 Z" id="Shape" fill="#1E243C"></path>
                <path d="M24.7206022,10.8915829 C24.7206022,11.7303419 25.0505592,12.5192805 25.6505438,13.1130318 C25.7848687,13.246114 25.9612131,13.3129963 26.1375576,13.3129963 C26.3139021,13.3129963 26.4902466,13.246114 26.6245714,13.1130318 C26.8939101,12.8461849 26.8939101,12.4148621 26.6245714,12.1480153 C26.2856594,11.8122387 26.0982934,11.3659015 26.0982934,10.8915829 C26.0982934,10.4172643 26.2849706,9.97024467 26.6245714,9.63446807 C27.2238671,9.04071676 27.554513,8.25177824 27.554513,7.41233674 C27.554513,6.57289523 27.224556,5.78395671 26.6245714,5.1902054 C26.3552328,4.92335855 25.9191935,4.92335855 25.6505438,5.1902054 C25.3812051,5.45705226 25.3812051,5.88837505 25.6505438,6.1552219 C25.9894558,6.4909985 26.176133,6.93801816 26.176133,7.41233674 C26.176133,7.88665531 25.9894558,8.33367497 25.6498549,8.66945158 C25.0505592,9.26320289 24.7206022,10.0521414 24.7206022,10.8915829 Z" id="Shape" fill="#1E243C"></path>
                <path d="M16.8484746,8.24222362 C16.8484746,9.30892856 17.2679816,10.3107986 18.0298448,11.0656135 C18.1641697,11.1986957 18.3405142,11.265578 18.5168587,11.265578 C18.6932032,11.265578 18.8695476,11.1986957 19.0045614,11.0656135 C19.2732112,10.7987666 19.2732112,10.3674438 19.0045614,10.100597 C18.5023929,9.60307432 18.2268547,8.94380563 18.2268547,8.24222362 C18.2268547,7.54064162 18.5030818,6.88069045 19.0045614,6.3831678 C19.7664246,5.62903539 20.1859316,4.6264829 20.1859316,3.55977796 C20.1859316,2.49307302 19.7664246,1.491203 19.0045614,0.735705644 C18.7352227,0.468858792 18.2998723,0.468858792 18.0305337,0.735705644 C17.7611951,1.0025525 17.7611951,1.43387529 18.0305337,1.70072214 C18.5320133,2.19824479 18.8082404,2.85751348 18.8082404,3.55977796 C18.8082404,4.26067749 18.5320133,4.92062866 18.0305337,5.41815131 C17.2679816,6.17364866 16.8484746,7.17551869 16.8484746,8.24222362 Z" id="Shape" fill="#1E243C"></path>
                <rect id="Rectangle-path" fill="#FFFFFF" x="12.3992209" y="20.3281339" width="2.75538242" height="3.75360023"></rect>
            </g>
        </g>
    </g>
</svg>