<?xml version="1.0" encoding="UTF-8"?>
<svg width="39px" height="38px" viewBox="0 0 39 38" version="1.1" xmlns="http://www.w3.org/2000/svg" xmlns:xlink="http://www.w3.org/1999/xlink">
    <!-- Generator: Sketch 47 (45396) - http://www.bohemiancoding.com/sketch -->
    <title>Group 6</title>
    <desc>Created with Sketch.</desc>
    <defs></defs>
    <g id="Page-1" stroke="none" stroke-width="1" fill="none" fill-rule="evenodd">
        <g id="iPhone-SE-Copy-2" transform="translate(-42.000000, -2389.000000)">
            <g id="Group-6" transform="translate(42.000000, 2389.000000)">
                <g id="thermometer" fill-rule="nonzero" fill="#FFFFFF">
                    <path d="M10.4820418,26.6460649 L10.4820418,4.20860246 C10.4820418,1.88439204 8.61896811,0 6.29437701,0 C3.97016659,0 2.10696603,1.88439204 2.10696603,4.20860246 L2.10696603,26.6460649 C0.838015156,27.786471 0.0819742263,29.4329348 0.0819742263,31.2637771 C0.0819742263,34.7064408 2.88331017,37.4974983 6.32622768,37.4974983 C9.76901829,37.4974983 12.5440869,34.7064408 12.5440869,31.2637771 C12.5440869,29.4329348 11.7509927,27.7865979 10.4820418,26.6460649 Z M6.29437701,2.0303214 C7.48389156,2.0303214 8.45172039,3.00754046 8.45172039,4.20860246 L8.45172039,6.15441173 L6.29450391,6.15441173 L6.29450391,8.18473312 L8.45172039,8.18473312 L8.45172039,10.3419496 L6.29450391,10.3419496 L6.29450391,12.372271 L8.45172039,12.372271 L8.45172039,14.5294875 L6.29450391,14.5294875 L6.29450391,16.5598089 L8.45172039,16.5598089 L8.45172039,18.7170254 L4.13728742,18.7170254 L4.13728742,4.20860246 C4.13728742,3.00754046 5.10498936,2.0303214 6.29437701,2.0303214 L6.29437701,2.0303214 Z" id="Shape"></path>
                </g>
                <path d="M38,4.5 L38,33.5" id="Line" stroke="#FFFFFF" stroke-width="2" stroke-linecap="square"></path>
            </g>
        </g>
    </g>
</svg>